<?xml version="1.0" encoding="UTF-8"?>
<svg id="_レイヤー_2" data-name="レイヤー 2" xmlns="http://www.w3.org/2000/svg" viewBox="0 0 511.6064453 53.7905273">
  <defs>
    <style>
      .cls-1 {
        fill: #231815;
      }

      .cls-1, .cls-2, .cls-3 {
        stroke-width: 0px;
      }

      .cls-2 {
        fill: #e50012;
      }

      .cls-3 {
        fill: #2ca6e0;
      }
    </style>
  </defs>
  <g id="_レイヤー_1-2" data-name="レイヤー 1">
    <g>
      <g>
        <g>
          <path class="cls-2" d="m215.0429688,52.8132324l12.9926758-44.6286621c-4.3178711,3.1494141-8.7973633,5.6875-13.4379883,7.614502l-.1630859-2.2802734c8.4160156-3.9089355,14.7290039-8.3742676,18.9370117-13.3967285h2.6884766l-15.425293,52.6911621h-5.5917969Z"/>
          <path class="cls-2" d="m266.6206055,47.6826172l-1.34375,5.1306152h-29.0737305l.2290039-1.0993652c11.0561523-10.4509277,18.4589844-17.6315918,22.2075195-21.5407715,4.5874023-4.831543,7.6005859-8.7546387,9.0400391-11.7678223.9223633-1.8730469,1.3842773-4.03125,1.3842773-6.4743652,0-2.6875-.6450195-4.7165527-1.934082-6.0876465-1.2895508-1.3706055-3.1015625-2.0563965-5.4360352-2.0563965-2.605957,0-4.8325195.6992188-6.6782227,2.097168-1.8461914,1.3984375-3.6376953,3.9567871-5.375,7.6755371h-2.1987305c1.5200195-4.5605469,3.6508789-7.9467773,6.3930664-10.1594238,2.7416992-2.2124023,5.7680664-3.3188477,9.0805664-3.3188477,3.8813477,0,6.9223633,1.0588379,9.1210938,3.1762695s3.2983398,4.8730469,3.2983398,8.2661133c0,1.9277344-.2993164,3.6513672-.8959961,5.1713867-.7602539,1.9819336-2.0908203,4.0515137-3.9907227,6.2097168-1.9003906,2.157959-6.0537109,6.0742188-12.4599609,11.7475586l-14.5776367,13.0302734h23.2099609Z"/>
        </g>
        <g>
          <path class="cls-1" d="m10.4243164,1.6398926c.1523438-.203125.2792969-.4067383.3813477-.4067383.1523438,0,1.0927734.7753906,1.0927734.9663086-.0253906.1396484-.1523438.203125-.3173828.203125h-3.8515625v2.1357422h2.5800781l.1782227-.2670898c.1015625-.1269531.1777344-.2670898.2797852-.2670898.1523438,0,.8896484.5722656.8896484.7626953-.0893555.1015625-.2416992.1782227-.5087891.2290039v4.1943359c.0253906,1.5253906.0512695,2.0336914.1020508,2.9868164-.1020508.1147461-.394043.3305664-.7753906.3305664-.1147461,0-.1655273-.1269531-.1655273-.2539062.0253906-.1782227.0253906-.2797852.0507812-.5595703v-.4067383H2.378418v.3305664c.0253906.3305664.0253906.4448242.0507812.597168-.0507812.1274414-.3051758.3305664-.6992188.3305664-.1142578,0-.2539062-.1269531-.2539062-.2539062.0761719-1.0932617.1142578-1.6523438.1396484-3.3051758v-2.3129883c0-.8642578-.0507812-1.9067383-.1650391-2.605957l1.0800781.4707031h2.1098633v-2.1357422h-1.6777344c-.6606445.0126953-1.2709961.0761719-1.90625.1782227l-.3305664-.6484375c.559082.0634766,1.1186523.0888672,1.6904297.1015625h7.7280273l.2797852-.394043ZM2.378418,4.9064941v6.0249023h7.9819336v-6.0249023h-2.6308594v2.809082c0,.190918.0380859.2290039.2797852.2290039h.5336914c.2543945,0,.4321289,0,.5336914-.0126953.0766602-.0126953.1274414-.0253906.1655273-.1142578.0634766-.1655273.2158203-.9155273.3046875-1.5380859h.1655273l.0380859,1.5888672c.2163086.0761719.2924805.1777344.2924805.3432617,0,.3300781-.3178711.4956055-1.5126953.4956055h-.7119141c-.7119141,0-.8515625-.2290039-.8515625-.7880859v-3.0126953h-1.5634766c-.0507812,1.6655273-.4321289,3.4702148-2.8217773,4.6396484l-.1396484-.1782227c1.8046875-1.2836914,2.1606445-2.847168,2.1987305-4.4614258h-2.262207Zm3.0249023-.3681641h1.5634766v-2.1357422h-1.5634766v2.1357422Z"/>
          <path class="cls-1" d="m23.2089844,3.8391113c.1396484-.190918.2539062-.3813477.355957-.3813477.1523438,0,1.0546875.7373047,1.0546875.9277344-.0380859.1401367-.1396484.2036133-.3173828.2036133h-3.3305664c.2290039,2.7705078.9282227,5.2495117,2.5297852,6.5332031.1904297.1904297.2666016.1777344.3681641-.0634766.1655273-.3051758.3813477-.9155273.5214844-1.4238281l.1650391.0253906-.2158203,1.9321289c.355957.4956055.3813477.7119141.2666016.8515625-.3046875.3813477-1.0292969,0-1.5507812-.4702148-1.8046875-1.5507812-2.6054688-4.1943359-2.9106445-7.3847656h-4.4995117c-.6606445.0126953-1.2709961.0761719-1.90625.1777344l-.3305664-.6479492c.559082.0634766,1.1181641.0888672,1.6904297.1015625h5.0205078c-.0761719-1.0170898-.1142578-2.097168-.1142578-3.203125,1.2963867.1015625,1.2963867.2285156,1.0678711.3813477l-.2163086.1396484c-.0126953.9023438.0126953,1.8051758.0761719,2.6821289h2.0083008l.2670898-.3813477Zm-4.2329102,3.203125c.1274414-.1782227.2290039-.3686523.3305664-.3686523.152832,0,.9282227.7119141.9282227.9023438-.0385742.1396484-.1401367.2036133-.3178711.2036133h-2.25v2.9487305c.8769531-.1655273,1.8178711-.355957,2.7583008-.5595703l.0380859.2163086c-1.4360352.4829102-3.40625,1.0932617-6.1391602,1.8427734-.0634766.152832-.1777344.2543945-.2924805.2924805l-.5463867-1.0166016c.3178711-.0380859.7373047-.1147461,1.2456055-.2036133v-2.5166016c0-.8388672-.0507812-1.894043-.1650391-2.5800781,1.2963867.3813477,1.2963867.5083008,1.1054688.6352539l-.1777344.1147461v4.2070312c.4194336-.0888672.9023438-.1782227,1.3979492-.2797852v-3.40625c0-.8642578-.0507812-1.9067383-.1650391-2.605957,1.3344727.3813477,1.3344727.5087891,1.1313477.6484375l-.190918.1269531v1.7670898h1.0678711l.2412109-.3686523Zm-.8134766-5.1606445c.1401367-.1777344.2416992-.3686523.3432617-.3686523.152832,0,.9663086.6992188.9663086.8896484-.0380859.1401367-.152832.2036133-.3305664.2036133h-2.3261719c-.6611328.0126953-1.2709961.0761719-1.9067383.1777344l-.3300781-.6479492c.559082.0634766,1.1181641.0888672,1.6904297.1015625h1.6523438l.2412109-.355957Zm3.4702148-.3813477c2.6694336.3178711,2.2626953,2.1352539,1.4106445,1.6523438-.2412109-.5463867-.9404297-1.1948242-1.4995117-1.5380859l.0888672-.1142578Z"/>
          <path class="cls-1" d="m26.2319336,4.1315918c2.5800781.3300781,2.097168,2.1606445,1.2202148,1.6523438-.1777344-.5595703-.8007812-1.1821289-1.3344727-1.5253906l.1142578-.1269531Zm.6865234,4.9697266c.1396484,0,.1904297-.0126953.3046875-.2543945q.2036133-.4575195,2.3515625-5.6054688l.2290039.0639648c-.5209961,1.5883789-1.5507812,4.5883789-1.7158203,5.1982422-.1147461.4067383-.190918.7880859-.190918,1.105957.0126953.559082.355957,1.144043.3178711,2.1733398-.0253906.546875-.2670898.8774414-.6865234.8774414-.2158203,0-.355957-.2290039-.3813477-.6357422.1655273-1.2963867.1020508-2.2753906-.1650391-2.4658203-.1655273-.1142578-.3432617-.1523438-.6103516-.1782227v-.2792969h.546875Zm.2285156-7.9697266c2.644043.4067383,2.1738281,2.2880859,1.2709961,1.7797852-.1777344-.5849609-.8388672-1.296875-1.3852539-1.6523438l.1142578-.1274414Zm8.8339844,2.2753906c.1142578-.1401367.1904297-.2924805.2924805-.2924805.1523438,0,.8642578.6611328.8642578.8515625-.0888672.1015625-.2290039.152832-.4702148.190918-.0380859,3.1137695-.152832,4.3466797-.5341797,4.7788086-.2539062.2670898-.6352539.3813477-1.0039062.3813477,0-.2285156-.0380859-.4448242-.1655273-.559082-.1269531-.1269531-.40625-.2163086-.6987305-.2670898l.0126953-.2285156c.2924805.0253906.7753906.0761719.9912109.0761719.1655273,0,.2416992-.0253906.3178711-.1142578.2163086-.2543945.2924805-1.4619141.3178711-4.1567383l-2.0209961.7880859v2.059082c.0253906,1.5253906.0507812,2.0336914.1015625,2.9873047-.1015625.1650391-.4321289.355957-.7119141.355957-.1396484,0-.2666016-.1274414-.2666016-.2543945.0634766-1.0424805.1015625-1.5634766.1269531-3.1396484v-1.703125l-1.8300781.7246094v5.0332031c0,.394043.1396484.546875.953125.546875h1.9448242c.9277344,0,1.5888672-.0253906,1.8681641-.0512695.190918-.0253906.2670898-.0761719.3432617-.203125.1142578-.2036133.2797852-.9150391.4575195-1.8305664h.1655273l.0380859,1.9067383c.3173828.1015625.394043.2036133.394043.3813477,0,.4448242-.5341797.6103516-3.2792969.6103516l-1.9702148-.0126953c-1.2709961,0-1.6777344-.2163086-1.6777344-1.144043v-4.9443359l-1.2202148.4829102-.2290039-.3178711,1.4492188-.5717773v-1.7416992c0-.597168-.0380859-1.309082-.1147461-1.8046875,1.3095703.394043,1.3095703.5209961,1.0932617.6611328l-.2158203.1396484v2.453125l1.8300781-.7246094v-1.8173828c0-.6103516-.0380859-1.3603516-.1142578-1.8686523,1.309082.394043,1.309082.5209961,1.0800781.6611328l-.2158203.1396484v2.5927734l1.8935547-.7495117.0385742-.0126953h-.0253906l.1904297-.2924805Z"/>
          <path class="cls-1" d="m48.7402344,7.1184082c.1396484-.190918.2416992-.3813477.3432617-.3813477.1523438,0,1.0166016.7246094,1.0166016.9150391-.0380859.1401367-.1523438.2036133-.3173828.2036133h-4.8173828c.3051758.6860352.75,1.2836914,1.2836914,1.7919922.6865234-.4575195,1.4492188-1.2075195,1.8046875-1.8046875,1.0805664.7880859,1.0805664.9150391.8520508.9277344h-.2163086c-.5336914.3432617-1.3852539.7753906-2.2114258,1.0932617.9785156.8515625,2.2368164,1.4487305,3.6352539,1.7919922l-.0131836.1269531c-.3554688.0639648-.6098633.3051758-.7368164.7246094-2.25-.8388672-3.8769531-2.300293-4.6777344-4.6518555h-.1015625c-.4829102.4829102-1.0678711.9277344-1.7158203,1.309082v2.0844727c.9785156-.1523438,2.097168-.3305664,3.2539062-.5083008l.0253906.2158203c-1.0932617.3432617-2.6313477.8134766-4.8427734,1.3984375-.0380859.1523438-.152832.2412109-.2797852.2792969l-.597168-1.0419922c.394043-.0380859.953125-.1269531,1.6523438-.2290039v-1.7666016c-.9663086.4702148-2.0463867.8515625-3.203125,1.1313477l-.0888672-.2163086c1.8554688-.6098633,3.4951172-1.5507812,4.6137695-2.65625h-2.4023438c-.6611328.0126953-1.2709961.0761719-1.9067383.1777344l-.3300781-.6479492c.559082.0634766,1.1181641.0888672,1.6904297.1015625h3.597168c0-.5209961-.0253906-1.144043-.0893555-1.5761719,1.2841797.3813477,1.2841797.5083008,1.0932617.6484375l-.1904297.1269531v.8007812h3.6225586l.2539062-.3686523Zm-9.7998047-2.1225586l-.1142578-.1655273c.6098633-.4956055,1.1948242-1.1181641,1.703125-1.7792969s.9785156-1.5507812,1.1694336-2.2373047c1.2836914.6738281,1.2836914.8007812,1.0419922.8388672l-.2285156.0385742c-.2797852.4448242-.6611328.9150391-1.1186523,1.3979492.559082.4067383.559082.5336914.3686523.6230469l-.1777344.0761719v.7626953c.0253906,1.0166016.0380859,1.3598633.0761719,1.9697266-.0893555.1274414-.4194336.3305664-.7119141.3305664-.1396484,0-.2290039-.1269531-.2290039-.2539062.0512695-.6230469.0639648-.9282227.0893555-1.8686523v-1.0678711c-.5595703.4960938-1.1948242.9663086-1.8686523,1.3349609Zm9.5839844-2.5678711c.1269531-.1904297.2158203-.3813477.3173828-.3813477.152832,0,1.0297852.5595703,1.0297852.75-.0126953.1401367-.1396484.2290039-.2924805.2416992l-4.0039062.4321289c.5722656,1.0292969,1.4873047,1.8813477,2.9619141,2.2495117.2539062.0639648.3554688.0512695.4321289-.1142578.1015625-.2285156.2539062-.6992188.355957-1.1186523l.1650391.0258789-.0634766,1.3217773c.3686523.2412109.4067383.3432617.355957.5209961-.152832.4067383-.7880859.2924805-1.4619141.1015625-1.7919922-.5209961-2.8979492-1.5507812-3.5717773-2.8979492l-2.5292969.2670898-.1269531-.355957,2.4912109-.2670898c-.2797852-.6733398-.4829102-1.4106445-.6103516-2.1987305,1.2456055.0253906,1.2456055.1523438,1.0678711.2797852l-.1650391.1269531c.1015625.5717773.2666016,1.1567383.5209961,1.703125l2.9106445-.3178711.2163086-.3686523Zm-2.6821289-1.1948242c2.5800781-.1142578,2.453125,1.5253906,1.6269531,1.2714844-.355957-.4321289-1.1186523-.902832-1.7158203-1.1186523l.0888672-.152832Z"/>
          <path class="cls-1" d="m52.5893555,3.3688965c.3178711-.7753906.6103516-1.8051758.6992188-2.5170898,1.347168.5214844,1.347168.6484375,1.1186523.7246094l-.2290039.0761719c-.4067383.6738281-.8896484,1.4111328-1.347168,1.9575195.8769531.75.4067383,1.6396484-.1777344,1.2075195-.1401367-.5717773-.6611328-1.2709961-1.1186523-1.6777344l.1269531-.1015625c.3813477.1142578.6738281.2412109.9023438.394043.0126953-.0253906.0126953-.0380859.0253906-.0634766Zm.5722656,5.262207l-.2036133.1015625c-.2792969,1.0419922-.6860352,2.1352539-1.1948242,2.847168l-.203125-.1015625c.0761719-.2163086.1523438-.4575195.2285156-.7119141.2290039-.8134766.3686523-1.9575195.3432617-2.6694336l.6992188.2163086c.5463867.0761719.5463867.203125.3305664.3178711Zm1.90625-2.2246094c-.1777344-.4194336-.394043-.8261719-.5844727-1.1313477l.1523438-.0761719c2.1230469,1.2583008,1.3857422,2.8344727.6865234,2.1865234-.0253906-.2163086-.0761719-.4580078-.1523438-.6992188-.2670898.0507812-.546875.1142578-.8642578.1777344v2.4404297c.0253906,1.5253906.0507812,2.0336914.1015625,2.9873047-.1015625.1269531-.3686523.3173828-.7373047.3173828-.1142578,0-.2543945-.1269531-.2543945-.2539062.0766602-1.0932617.1147461-1.6523438.1401367-3.3046875v-2.0463867c-.394043.0761719-.8261719.1523438-1.2963867.2285156-.0893555.1655273-.190918.2416992-.3178711.2670898l-.3432617-.9663086c.2670898,0,.6611328-.0126953,1.144043-.0253906.3046875-.5463867.6479492-1.1689453.9785156-1.8046875.394043-.7373047.8007812-1.703125.9790039-2.3896484,1.2583008.6103516,1.2583008.7373047,1.0166016.8007812l-.2416992.0507812c-.5844727.9277344-1.512207,2.2626953-2.4018555,3.3300781.597168-.0253906,1.2836914-.0507812,1.9951172-.0888672Zm-.203125,1.6523438c1.8813477,1.4365234,1.0932617,2.9746094.4321289,2.2880859,0-.6992188-.3178711-1.6269531-.597168-2.2246094l.1650391-.0634766Zm2.1479492.2163086c-.3305664.0126953-.6352539.0761719-.9404297.1777344l-.3432617-.6479492c.4067383.0634766.8134766.0888672,1.2202148.1015625h.559082l.2036133-.2290039c.1142578-.1142578.1904297-.2412109.2924805-.2412109.1523438,0,.8007812.559082.8007812.75-.1020508.1142578-.2163086.1396484-.4833984.1523438-.4194336,1.4360352-1.2963867,2.7963867-2.847168,3.6352539l-.1142578-.190918c1.144043-.8515625,1.8686523-2.1606445,2.1865234-3.5078125h-.5341797Zm4.2963867-6.1137695c.1015625-.1401367.1650391-.2924805.2666016-.2924805.152832,0,.8134766.597168.8134766.7880859-.0761719.0888672-.1904297.1523438-.4575195.203125v1.2714844c.0253906,1.2583008.0380859,1.6777344.0893555,2.453125-.0893555.1269531-.3686523.3046875-.7246094.3046875h-.1274414v-.4829102h-1.4614258c.1904297.9663086.4956055,1.7539062.8769531,2.3896484.4702148-.5844727.9785156-1.3852539,1.1948242-1.9702148,1.0551758.7880859,1.0551758.9150391.8261719.940918l-.2163086.0126953c-.3813477.3300781-1.0546875.8388672-1.6904297,1.2202148.6484375.9912109,1.4746094,1.6010742,2.3388672,2.0463867l-.0253906.1523438c-.3051758.0634766-.5209961.3305664-.6484375.7246094-1.3979492-1.0805664-2.3383789-2.453125-2.7832031-5.2114258v4.6645508c0,.6484375-.1274414,1.105957-1.1567383,1.2329102-.0126953-.2412109-.0761719-.4702148-.2163086-.597168-.1777344-.1396484-.4702148-.2543945-.9658203-.3178711v-.1904297s1.1186523.0888672,1.347168.0888672c.2036133,0,.2543945-.0634766.2543945-.2416992v-4.9443359h-1.4746094v.3432617c0,.0761719-.2543945.2416992-.6479492.2416992-.1020508,0-.1782227-.1274414-.1782227-.2543945.0380859-.4575195.0507812-.6992188.0761719-1.3979492v-.8261719c0-.8266602-.0507812-1.8686523-.1650391-2.5424805l1.0546875.4702148h.8647461c.1142578-.4829102.203125-1.1181641.2285156-1.550293,1.347168.2792969,1.347168.4067383,1.1186523.5209961l-.2163086.1015625c-.1904297.2670898-.4702148.6230469-.6987305.9277344h2.3256836l.1782227-.2792969Zm-.1401367.6352539h-3.800293v1.4365234h3.800293v-1.4365234Zm-3.800293,3.2412109h3.800293v-1.4360352h-3.800293v1.4360352Z"/>
        </g>
        <g>
          <path class="cls-1" d="m139.859375,46.564209c.7373047,3.609375-1.3476562,3.2285156-.75,2.262207.3427734-.4194336.546875-1.2329102.5595703-2.262207h.1904297Zm3.5078125-3.5717773c.1142578-.152832.203125-.3051758.3056641-.3051758.1523438,0,.8388672.5976562.8388672.7880859-.0390625.1396484-.1533203.2036133-.3056641.2036133h-1.8300781v1.3979492h1.0673828l.1904297-.2290039c.1025391-.1142578.1787109-.2412109.2802734-.2412109.1523438,0,.8261719.5463867.8261719.7373047-.0888672.1015625-.2285156.1523438-.4707031.1904297-.1269531,2.5039062-.4443359,3.800293-.9277344,4.2324219-.2919922.2670898-.6738281.3686523-1.0927734.3686523,0-.203125-.0380859-.4067383-.1523438-.5209961-.1279297-.1142578-.4580078-.203125-.7753906-.2670898v-.2158203c.3681641.0253906.9404297.0761719,1.15625.0761719.203125,0,.2919922-.0253906.4072266-.1142578.3046875-.2797852.5458984-1.4619141.6728516-3.6479492h-3.0625v.4067383c0,.0634766-.2294922.2670898-.5976562.2670898-.1142578,0-.2285156-.1274414-.2285156-.2543945.0634766-.8261719.0888672-1.2456055.1142578-2.4912109v-1.3857422c0-.8642578-.0507812-1.90625-.1650391-2.6054688l1.0292969.4448242h2.5927734l.2412109-.3305664c.1269531-.1650391.2294922-.3305664.3310547-.3305664.1523438,0,.9404297.6484375.9404297.8388672-.0380859.1401367-.1523438.2036133-.3183594.2036133h-2.0585938v1.347168h.8388672l.1904297-.3046875c.1142578-.152832.1904297-.3178711.2929688-.3178711.1523438,0,.8515625.597168.8515625.7880859-.0253906.1396484-.1533203.203125-.3056641.203125h-1.8681641v1.3730469h.7880859l.203125-.3051758Zm-2.7832031,3.4443359c1.1689453,1.6269531.4189453,2.9873047-.0761719,2.3515625.1269531-.7373047.0380859-1.6904297-.1152344-2.3007812l.1914062-.0507812Zm1.0927734-6.2280273h-1.1816406v1.347168h1.1816406v-1.347168Zm0,3.0888672v-1.3730469h-1.1816406v1.3730469h1.1816406Zm-1.1816406.3813477v1.3979492h1.1816406v-1.3979492h-1.1816406Zm.8007812,2.5419922c1.5634766,1.2456055.9404297,2.5166016.40625,1.9575195,0-.5849609-.3046875-1.3857422-.5595703-1.8813477l.1533203-.0761719Zm.7753906-.2797852c1.703125.6230469,1.1816406,1.9067383.609375,1.4365234-.0761719-.4448242-.4316406-1.0170898-.7626953-1.3349609l.1533203-.1015625Zm7.015625-6.3681641c.1142578-.1396484.1904297-.2919922.2929688-.2919922.1523438,0,.9150391.6606445.9150391.8515625-.0634766.1015625-.2675781.203125-.5087891.2412109v1.4492188c.0253906,1.4360352.0507812,1.9194336.1015625,2.809082-.1142578.1396484-.5078125.3305664-.75.3305664-.1142578,0-.1650391-.1274414-.1650391-.2543945.0253906-.0634766.0253906-.1015625.0507812-.2158203v-.2416992h-1.9316406c.5205078,2.3642578,1.6396484,4.5375977,3.3935547,5.4272461l-.0253906.1401367c-.3056641.0634766-.5722656.3173828-.6865234.7368164-1.6904297-1.2583008-2.5039062-3.4189453-2.9238281-6.3041992h-.7626953c-.0507812,2.1606445-.3554688,4.6137695-2.1728516,6.3168945l-.1904297-.1269531c1.4228516-1.9067383,1.5888672-4.3344727,1.5888672-6.7617188v-2.1230469c0-.7114258-.0390625-1.5888672-.140625-2.1733398l1.0556641.4702148h2.6689453l.1904297-.2797852Zm-3,4.0927734v.2036133h2.9365234v-3.6479492h-2.9365234v3.4443359Z"/>
          <path class="cls-1" d="m151.8310547,46.1574707l-.1396484-.152832c.609375-.6860352,1.2197266-1.5507812,1.7539062-2.4023438.4443359-.7114258.8388672-1.5761719,1.0166016-2.262207,1.296875.6606445,1.296875.7880859,1.0546875.8261719l-.2412109.0380859c-.2666016.4448242-.6357422.953125-1.0419922,1.4746094l.3300781.1396484c-.0380859.1142578-.1650391.1904297-.3554688.2285156v3.1777344c.0253906,1.5253906.0507812,2.0336914.1015625,2.9873047-.1142578.1396484-.4326172.3554688-.7373047.3554688-.1523438,0-.2919922-.1269531-.2919922-.2539062.0761719-1.0932617.1142578-1.6523438.1396484-3.3046875v-2.3769531c-.4960938.5463867-1.0292969,1.0800781-1.5888672,1.5253906Zm3.4443359-6.4951172l-.2285156.0253906c-.6865234.8261719-1.90625,1.9443359-3.1396484,2.6435547l-.1269531-.1650391c.3935547-.3432617.8007812-.7753906,1.1816406-1.2075195.546875-.6357422,1.09375-1.5,1.3095703-2.1606445l.6738281.4575195c.5585938.2539062.5585938.3813477.3300781.4067383Zm6.0634766,5.8974609c.1396484-.1777344.2412109-.3686523.3427734-.3686523.1523438,0,1.0039062.7119141,1.0039062.9023438-.0380859.1401367-.1650391.2036133-.3300781.2036133h-2.796875v2.8852539c.5595703.1523438,1.2080078.2163086,1.9580078.2163086.3935547,0,1.2451172,0,1.7158203-.0126953v.1777344c-.2792969.0507812-.4199219.3305664-.4326172.6738281h-1.3720703c-2.3515625,0-3.7119141-.7119141-4.4873047-3.4321289-.3681641,1.3984375-1.0039062,2.7963867-2.1347656,3.7368164l-.140625-.1396484c.7119141-.8515625,1.1699219-2.0209961,1.4365234-3.2539062.1904297-.8134766.2539062-1.9575195.1650391-2.65625,1.4365234.2412109,1.4365234.3681641,1.2207031.4829102l-.2158203.1142578c-.0634766.4194336-.140625.8642578-.2421875,1.309082.4199219,1.2583008.9794922,2.0209961,1.7539062,2.4658203v-2.6435547c0-.8642578-.0507812-1.9067383-.1650391-2.605957,1.3349609.3813477,1.3349609.5087891,1.1318359.6484375l-.1914062.1269531v1.5380859h1.5253906l.2548828-.3686523Zm.40625-2.7075195c.1396484-.1777344.2412109-.3681641.34375-.3681641.1523438,0,1.0039062.7241211,1.0039062.9150391-.0253906.1396484-.1396484.203125-.3183594.203125h-5.2871094c-.6611328.0126953-1.2714844.0766602-1.90625.1782227l-.3310547-.6611328c.5595703.0634766,1.1191406.0888672,1.6904297.1015625h1.6142578v-1.9697266h-.8388672c-.5341797.0126953-1.0166016.0761719-1.5253906.1777344l-.3173828-.6611328c.5595703.0634766,1.1181641.0893555,1.6904297.1020508h.9912109c0-.6230469-.0380859-1.4111328-.1142578-1.9321289,1.3095703.3813477,1.3095703.5083008,1.1054688.6479492l-.1904297.1274414v1.1567383h1.6015625l.2539062-.355957c.140625-.1782227.2548828-.3686523.3564453-.3686523.1523438,0,.9912109.7119141.9912109.9023438-.0380859.1396484-.1396484.2036133-.3173828.2036133h-2.8857422v1.9697266h2.1357422l.2539062-.3686523Z"/>
          <path class="cls-1" d="m172.9287109,40.4504395c.1523438-.190918.2675781-.394043.3691406-.394043.1523438,0,1.0546875.7495117,1.0546875.9404297-.0253906.1396484-.1523438.203125-.3300781.203125h-3.4580078v1.7416992h3.4199219l.2792969-.394043c.1523438-.190918.2792969-.394043.3808594-.394043.1533203,0,1.09375.7753906,1.09375.9658203-.0380859.1396484-.1523438.2036133-.3310547.2036133h-8.7060547c-.6611328.0126953-1.2714844.0761719-1.9072266.1777344l-.3300781-.6611328c.5458984.0639648,1.0927734.0893555,1.6523438.1020508h.8007812v-.5214844c0-.8642578-.0507812-1.90625-.1650391-2.6054688,1.3339844.3813477,1.3339844.5083008,1.1308594.6484375l-.203125.1269531v2.3515625h2.0712891v-1.4873047c0-.8642578-.0507812-1.9067383-.1650391-2.6054688,1.4111328.394043,1.4111328.5209961,1.1953125.6606445l-.2167969.1401367v1.1816406h2.0976562l.2666016-.3808594Zm-4.4736328,4.1308594l-.2294922.0253906c-.7109375,1.0039062-2.0458984,2.2368164-3.5078125,2.9741211l-.1142578-.1650391c.546875-.4194336,1.0927734-.9536133,1.5761719-1.5126953.546875-.6357422,1.0419922-1.5,1.2451172-2.1733398l.6865234.4448242c.5722656.2412109.5722656.3686523.34375.4067383Zm5.0078125,1.9702148l-.2539062.0126953c-2.2119141,2.7578125-4.7285156,3.5712891-8.109375,3.9907227l-.0507812-.2412109c2.2363281-.4575195,4.1308594-1.0678711,5.7451172-2.4277344.6474609-.5336914,1.4482422-1.5761719,1.7412109-2.2119141l.6357422.4707031c.5458984.2666016.5458984.394043.2919922.4067383Zm-3.8134766-3.2285156c1.3095703.394043,1.3095703.5209961,1.1064453.6479492l-.1914062.1142578v2.6186523c0,.6611328-.1523438,1.0678711-1.2578125,1.1821289-.0380859-.2416992-.1015625-.4575195-.2675781-.5849609-.1777344-.1396484-.4570312-.2412109-.9912109-.3046875v-.190918s1.2080078.0888672,1.4492188.0888672c.1904297,0,.2539062-.0634766.2539062-.2412109v-1.6269531c0-.546875-.0253906-1.2329102-.1015625-1.703125Zm2.4277344.7241211c3.7753906,1.0297852,3.5595703,3.1904297,2.5673828,2.7075195-.4443359-.8896484-1.7285156-1.9702148-2.6816406-2.5673828l.1142578-.1401367Z"/>
          <path class="cls-1" d="m187.0615234,43.4499512c.1396484-.190918.2539062-.394043.3554688-.394043.1533203,0,1.0429688.75,1.0429688.9404297-.0380859.1401367-.1396484.2036133-.3056641.2036133h-5.65625v3.0629883c.0253906,1.5253906.0507812,2.0336914.1015625,2.9873047-.1015625.1269531-.3427734.3173828-.7490234.3173828-.1152344,0-.1914062-.1269531-.1914062-.2539062.0380859-.3686523.0507812-.546875.0761719-1.105957v-.6865234c-.9023438.3178711-2.109375.7119141-3.6855469,1.1821289-.0507812.1655273-.1650391.2670898-.2792969.3051758l-.4960938-1.0424805c.3554688-.0380859.9277344-.1269531,1.6142578-.2412109v-4.5249023h-.5087891c-.3046875.0126953-.5966797.0761719-.8896484.1777344l-.3173828-.6479492c.5595703.0634766,1.1181641.0888672,1.6904297.1015625h7.9443359l.2539062-.3813477Zm-1.2841797-4.1181641c.1152344-.1401367.2041016-.2924805.3056641-.2924805.1523438,0,.9277344.6738281.9277344.8642578-.0761719.1015625-.2792969.2036133-.5214844.2543945v.9785156c.0253906.9790039.0380859,1.309082.0761719,1.894043-.0888672.1396484-.4824219.3178711-.75.3178711h-.1142578v-.5341797h-5.6054688v.3813477c0,.0893555-.3427734.2797852-.6728516.2797852-.1025391,0-.1787109-.1269531-.1787109-.2543945.0380859-.3813477.0507812-.5717773.0761719-1.15625v-.7119141c0-.7246094-.0380859-1.6015625-.1396484-2.1865234l.9921875.4580078h5.4013672l.203125-.2924805Zm-4.0419922,5.9868164v-1.1186523h-2.0839844v1.1186523h2.0839844Zm0,1.550293v-1.1694336h-2.0839844v1.1694336h2.0839844Zm0,1.3730469v-1.0043945h-2.0839844v1.3603516c.6484375-.1020508,1.3603516-.2290039,2.0839844-.355957Zm3.9658203-8.2495117h-5.6054688v1.0170898h5.6054688v-1.0170898Zm-5.6054688,2.4658203h5.6054688v-1.0800781h-5.6054688v1.0800781Zm8.4658203,7.0166016l-.0253906.1396484c-.34375.0507812-.6103516.3178711-.7119141.7119141-.9785156-.3813477-1.7919922-.8769531-2.453125-1.5380859-.6738281.6357422-1.5,1.1821289-2.5292969,1.5888672l-.1142578-.1904297c.8896484-.4833984,1.6396484-1.1186523,2.2363281-1.8432617-.5839844-.7119141-1.0166016-1.6015625-1.3085938-2.6821289h-.2548828c-.1269531.0126953-.2412109.0766602-.3554688.1782227l-.3427734-.6611328c.5585938.0634766,1.1181641.0888672,1.6904297.1015625h1.9824219l.2412109-.2539062c.1279297-.1274414.2294922-.2670898.3310547-.2670898.1523438,0,.8515625.6357422.8515625.8261719-.0888672.1269531-.2158203.152832-.4833984.1655273-.3300781.9150391-.8007812,1.7666016-1.4482422,2.5166016.7617188.5463867,1.6777344.953125,2.6943359,1.2075195Zm-4.6396484-3.8134766c.3183594.8642578.8007812,1.5888672,1.4365234,2.1738281.4443359-.6738281.7880859-1.4111328,1.0166016-2.1738281h-2.453125Z"/>
          <path class="cls-1" d="m193.6689453,43.8186035c.1279297-.1655273.2294922-.3432617.3310547-.3432617.1523438,0,.9150391.6738281.9150391.8642578-.0253906.1396484-.1396484.2036133-.3173828.2036133h-1.7548828c-.0253906.4575195-.0761719.9277344-.1523438,1.3979492,2.6953125,1.3217773,2.0214844,3.3173828,1.1826172,2.6054688-.1015625-.762207-.6611328-1.6650391-1.2333984-2.3129883-.3046875,1.5126953-1.0039062,3.0629883-2.5166016,4.2578125l-.1650391-.1523438c1.6015625-1.7924805,2.0205078-3.9023438,2.1103516-5.7958984h-.6357422c-.4072266.0126953-.7626953.0761719-1.1445312.1777344l-.3300781-.6611328c.4833984.0639648.9658203.0893555,1.4492188.1020508h.6738281c.0126953-.2290039.0126953-.4575195.0126953-.6738281v-1.9575195h-.6484375c-.3183594.8388672-.7119141,1.5888672-1.1953125,2.1611328l-.203125-.1147461c.2666016-.5463867.5087891-1.2202148.6992188-1.9448242.2158203-.8134766.3554688-2.0463867.2919922-2.7578125,1.3857422.2792969,1.3857422.4067383,1.1826172.5336914l-.2041016.1142578c-.1269531.5595703-.2666016,1.105957-.4443359,1.6269531h1.6142578l.2412109-.355957c.1396484-.1777344.2412109-.3681641.34375-.3681641.1523438,0,.9912109.7114258.9912109.9023438-.0380859.1396484-.1777344.203125-.3310547.203125h-1.5498047v1.9575195c0,.2163086,0,.4448242-.0126953.6738281h.5585938l.2412109-.3432617Zm6.0507812,5.8720703l.2539062-.3686523c.1396484-.1904297.2548828-.3813477.3564453-.3813477.1523438,0,.9912109.7246094.9912109.9155273-.0380859.1396484-.1396484.1904297-.3046875.1904297h-5.0341797c-.6601562.0126953-1.2705078.0761719-1.90625.1782227l-.3173828-.6357422c.5585938.0634766,1.1181641.0888672,1.6904297.1015625h2.3388672c.1142578-.3046875.2158203-.6352539.3300781-.9912109.2412109-.8007812.4580078-1.8813477.4707031-2.5800781,1.3974609.3427734,1.3974609.4702148,1.1816406.5844727l-.2158203.1015625c-.3310547.8515625-.9023438,1.9956055-1.5,2.8852539h1.6650391Zm.0507812-10.0664062c.1396484-.1782227.2539062-.3686523.3554688-.3686523.1533203,0,1.0175781.7241211,1.0175781.9150391-.0380859.1396484-.1533203.203125-.3183594.203125h-4.2578125c-.6611328.0126953-1.2714844.0766602-1.90625.1782227l-.3183594-.6611328c.5595703.0634766,1.1191406.0888672,1.6904297.1015625h3.4833984l.2539062-.3681641Zm-.3427734,2.097168c.1142578-.1401367.1904297-.2924805.2919922-.2924805.1523438,0,.9277344.6611328.9277344.8515625-.0761719.1015625-.2792969.2036133-.5214844.2670898v1.0673828c.0253906,1.0678711.0380859,1.4238281.0771484,2.059082-.0898438.152832-.4833984.3178711-.7373047.3178711h-.1152344v-.559082h-3.4443359v.4575195c0,.0888672-.3300781.2797852-.6611328.2797852-.1269531,0-.203125-.1274414-.203125-.2543945.0380859-.4194336.0507812-.6230469.0761719-1.2583008v-.7626953c0-.7753906-.0380859-1.7158203-.1396484-2.3388672l.9912109.4448242h3.2539062l.2041016-.2792969Zm-3.6484375,4.5883789c2.1738281,1.7285156,1.3476562,3.5844727.5976562,2.7963867-.0126953-.8642578-.3818359-1.9956055-.7626953-2.7202148l.1650391-.0761719Zm.1269531-1.2583008h3.4443359v-2.6694336h-3.4443359v2.6694336Z"/>
        </g>
        <path class="cls-1" d="m280.0639648,41.6027832l-.2285156.0507812c-.6992188,1.3725586-1.9960938,3.1396484-3.6484375,4.2451172l-.1269531-.1523438c.7626953-.6992188,1.4492188-1.6269531,1.9951172-2.5673828.4326172-.7246094.7880859-1.6396484.9277344-2.3388672l.7246094.3813477c.5976562.2036133.5976562.3305664.3564453.3813477Zm-.5722656,3.8510742c-.5087891.0126953-.9912109.0766602-1.4746094.1782227l-.3427734-.6611328c.5595703.0634766,1.1181641.0888672,1.6904297.1015625h4.7412109l.203125-.2539062c.1142578-.1269531.203125-.2670898.3046875-.2670898.1533203,0,.8896484.6230469.8896484.8134766-.0888672.0888672-.2412109.1655273-.4824219.190918-.1142578,2.9106445-.4199219,4.9570312-.9785156,5.5161133-.3310547.3305664-.8134766.4829102-1.3730469.4829102.0126953-.2412109-.0507812-.4829102-.2412109-.597168-.2167969-.1523438-.7880859-.2924805-1.2841797-.3686523l.0126953-.2290039c.5722656.0639648,1.5761719.152832,1.8554688.152832.2294922,0,.34375-.0253906.4580078-.152832.3808594-.3554688.6357422-2.2875977.75-4.90625h-3.0507812c-.2158203,2.0209961-.8515625,4.3598633-4.4101562,6.1137695l-.1396484-.2158203c3.0878906-1.855957,3.5585938-4.0927734,3.6728516-5.8979492h-.8007812Zm8.0078125-.5717773l-.0253906.1269531c-.3564453.0761719-.6484375.355957-.75.6738281-1.6269531-1.144043-2.9365234-2.8979492-3.5585938-4.8173828h-.9023438c-.5849609.0126953-1.1191406.0761719-1.6787109.1782227l-.3427734-.6484375c.5595703.0634766,1.1181641.0888672,1.6904297.1015625h.9404297l.3818359-.597168,1.0673828.7626953c-.1015625.1523438-.40625.2412109-.8007812.2666016.6357422,1.4619141,2.1738281,3.0761719,3.9785156,3.953125Z"/>
        <g>
          <path class="cls-1" d="m25.9990234,28.9050293c.3710938-.5058594.6748047-1.0117188.9443359-1.0117188.4052734,0,2.7988281,1.9555664,2.7988281,2.4614258-.1005859.3710938-.3710938.5395508-.8427734.5395508h-8.8349609c.6064453,7.3515625,2.4619141,13.9272461,6.7109375,17.3334961.5058594.5053711.7080078.4716797.9775391-.1689453.4384766-.809082,1.0117188-2.4277344,1.3828125-3.7768555l.4384766.0673828-.5732422,5.1259766c.9443359,1.3149414,1.0117188,1.8881836.7080078,2.2592773-.8095703,1.0117188-2.7314453,0-4.1142578-1.2475586-4.7880859-4.1142578-6.9130859-11.128418-7.7226562-19.5927734H5.9345703c-1.7529297.0336914-3.3720703.2026367-5.0576172.472168l-.8769531-1.7197266c1.4833984.168457,2.9667969.2363281,4.484375.2700195h13.3203125c-.2021484-2.6977539-.3037109-5.5644531-.3037109-8.4980469,3.4404297.2695312,3.4404297.6069336,2.8330078,1.0117188l-.5732422.3706055c-.0332031,2.3945312.0341797,4.7885742.2021484,7.1157227h5.328125l.7080078-1.0117188Zm-11.2294922,8.4975586c.3378906-.4716797.6074219-.9775391.8769531-.9775391.4052734,0,2.4619141,1.8881836,2.4619141,2.394043-.1015625.3710938-.3710938.5395508-.8427734.5395508h-5.96875v7.8237305c2.3261719-.4384766,4.8222656-.9443359,7.3173828-1.4838867l.1015625.5732422c-3.8105469,1.28125-9.0380859,2.8999023-16.2880859,4.8896484-.1689453.4047852-.4716797.6743164-.7753906.7753906l-1.4501953-2.6977539c.8427734-.1010742,1.9560547-.3032227,3.3046875-.5395508v-6.6767578c0-2.2255859-.1347656-5.0244141-.4384766-6.8457031,3.4394531,1.0117188,3.4394531,1.3491211,2.9335938,1.6860352l-.4716797.3037109v11.1621094c1.1123047-.2363281,2.3945312-.472168,3.7089844-.7421875v-9.0371094c0-2.293457-.1347656-5.0585938-.4384766-6.9130859,3.5410156,1.0117188,3.5410156,1.3486328,3.0019531,1.7197266l-.5058594.3374023v4.6870117h2.8320312l.640625-.9780273Zm-2.1582031-13.690918c.3710938-.472168.6416016-.9780273.9111328-.9780273.4042969,0,2.5625,1.8549805,2.5625,2.3608398-.1005859.3706055-.4042969.5395508-.8769531.5395508h-6.1708984c-1.7539062.0336914-3.3720703.2021484-5.0585938.4716797l-.8759766-1.7197266c1.4833984.1689453,2.9667969.2363281,4.484375.2700195h4.3837891l.640625-.9443359Zm9.2060547-1.0117188c7.0820312.8432617,6.0029297,5.6655273,3.7431641,4.3837891-.640625-1.449707-2.4951172-3.1699219-3.9785156-4.0800781l.2353516-.3037109Z"/>
          <path class="cls-1" d="m60.6933594,29.2419434c.3369141-.4379883.5732422-.9101562.8427734-.9101562.4042969,0,2.3945312,1.753418,2.3945312,2.2592773-.1015625.3710938-.3710938.5395508-.8095703.5395508h-8.0595703c.1015625,3.6757812.5058594,7.25,1.3486328,10.3188477.2705078-.5395508.5400391-1.112793.7753906-1.7197266.84375-2.0571289,1.4501953-4.9912109,1.4501953-6.8457031,3.6083984,1.0454102,3.6083984,1.3828125,2.9677734,1.6523438l-.6064453.2363281c-.9111328,3.5742188-2.1582031,6.5756836-3.7431641,9.0708008.8427734,1.9560547,2.0224609,3.6083984,3.5400391,4.7885742.4384766.4384766.640625.4384766.9111328-.168457.3369141-.7080078.8085938-2.1582031,1.1464844-3.3720703l.4042969.0673828-.4042969,4.4848633c.8085938,1.1464844.8427734,1.5849609.6064453,1.9560547-.640625.9780273-2.3935547.168457-3.6083984-.8432617-1.6523438-1.3486328-2.8994141-3.034668-3.9111328-5.0244141-2.1923828,2.8662109-4.9570312,4.9570312-8.1611328,6.4072266l-.3710938-.472168c1.7207031-1.0791016,3.3388672-2.3945312,4.8222656-3.9453125h-9.7792969v1.5849609c0,.168457-.6064453.7080078-1.5507812.7080078-.3037109,0-.6074219-.3374023-.6074219-.6743164.1689453-2.1245117.2363281-3.2036133.3037109-6.4072266v-3.5410156c0-2.2929688-.1347656-5.0581055-.4384766-6.9130859l2.6640625,1.2143555h6.4072266l.5058594-.7758789c.3037109-.3710938.5058594-.7753906.7753906-.7753906.4052734,0,2.125,1.4833984,2.125,1.9892578-.1015625.3710938-.4052734.5395508-.8427734.5395508h-4.5195312v3.0688477h2.1923828l.4384766-.5395508c.2353516-.2695312.4042969-.5395508.6738281-.5395508.4052734,0,2.1582031,1.2475586,2.1582031,1.753418-.1679688.2363281-.6064453.5058594-1.1796875.6069336v1.4838867c.0673828,1.4838867.0673828,1.9897461.1347656,2.7988281-.1689453.3710938-1.0791016.8095703-1.6865234.8095703h-.2353516v-1.1801758h-2.4960938v3.8105469h2.2255859l1.2138672-1.6186523s1.2822266,1.0454102,2.125,1.8881836c.8427734-.9438477,1.6181641-2.0229492,2.2929688-3.1699219-1.3154297-3.5742188-1.9560547-7.9243164-2.1582031-12.7128906h-14.0615234v4.7211914c0,4.7207031-.3378906,11.4990234-4.8564453,16.2202148l-.4042969-.4047852c2.9667969-4.7885742,3.2373047-10.5888672,3.2373047-15.7817383v-3.4399414c0-1.1464844-.0673828-2.5966797-.2021484-3.6079102l2.6298828,1.28125h13.6240234c-.0341797-.640625-.0341797-1.28125-.0683594-1.9223633-.2021484.0673828-.4716797.1015625-.7412109.1015625h-.3710938v-2.6303711h-6.3398438v.7416992c.0673828.7080078.0341797.9443359.1015625,1.2475586-.1015625.4047852-.9785156.7421875-1.8212891.7421875-.3037109,0-.4384766-.3374023-.4384766-.6743164.0673828-.3710938.0673828-.5737305.1347656-1.1469727v-.9101562h-3.9453125c-1.7539062.0336914-3.3720703.2021484-5.0585938.472168l-.7753906-1.7202148c1.484375.1689453,2.9677734.2363281,4.4853516.2700195h5.2939453c0-1.1464844-.0673828-2.5966797-.2021484-3.6083984,3.40625,1.0117188,3.40625,1.3491211,2.7988281,1.7197266l-.5732422.3710938v1.5175781h6.3398438c0-1.1464844-.0673828-2.5966797-.2021484-3.6083984,3.4394531,1.0117188,3.4394531,1.3491211,2.8662109,1.7197266l-.5732422.3710938v1.5175781h5.3613281l.6748047-.9780273c.3710938-.472168.640625-.9780273.9101562-.9780273.4052734,0,2.6308594,1.8886719,2.6308594,2.3945312-.0673828.3706055-.3710938.5395508-.8095703.5395508h-8.7675781v1.5170898c2.2255859.7758789,2.2255859,1.1132812,1.6855469,1.4838867l-.5058594.3710938v1.0791016h5.0927734l.5732422-.8769531Zm-15.2763672,5.4291992h-2.9677734v3.0688477h2.9677734v-3.0688477Zm4.3505859,4.0805664h-7.3183594v3.2373047h7.3183594v-3.2373047Zm-7.3183594,4.1816406v3.8105469h2.9677734v-3.8105469h-2.9677734Zm13.9277344-16.9287109c5.0917969.9780273,3.7089844,4.5527344,1.921875,3.3725586-.3037109-1.0791016-1.3154297-2.3608398-2.2929688-3.1025391l.3710938-.2700195Z"/>
          <path class="cls-1" d="m93.6669922,36.7619629c.3369141-.4042969.5732422-.8427734.8427734-.8427734.4052734,0,2.5292969,1.6186523,2.5292969,2.1245117-.1005859.3706055-.4042969.5395508-.8427734.5395508h-4.3505859c1.6191406,1.449707,3.5410156,2.5961914,5.5986328,3.3383789l-.0341797.3706055c-.8095703.1015625-1.3486328.6748047-1.6523438,1.6191406-2.3945312-1.2480469-4.3505859-3.0351562-5.7998047-5.328125h-6.2050781c-.8095703,1.1464844-1.6865234,2.1582031-2.6308594,3.0683594,4.4853516,1.8549805,2.4960938,5.1933594.9443359,3.6420898-.0332031-1.0791016-.6738281-2.4956055-1.3144531-3.3383789-1.1806641,1.0117188-2.4619141,1.8544922-3.8789062,2.5292969l-.0332031-.0341797v4.8564453c0,1.6523438-.3037109,2.6298828-2.7314453,2.8999023-.0673828-.5732422-.2021484-1.112793-.5058594-1.4165039-.3369141-.3032227-.8769531-.5395508-1.921875-.7080078v-.5395508s2.1240234.2021484,2.6640625.2021484c.4384766,0,.5732422-.2021484.5732422-.640625v-6.5756836h-3.4736328c-.3369141,3.4057617-1.2480469,6.9130859-3.6757812,9.5771484l-.4384766-.3710938c2.2597656-4.1142578,2.3945312-9.3408203,2.3945312-14.2978516v-4.5864258c0-1.5512695-.1015625-3.4394531-.3037109-4.7548828l2.5625,1.2138672h2.6308594l.4384766-.640625c.2695312-.3369141.4384766-.6743164.7080078-.6743164.4042969,0,2.5292969,1.5512695,2.5292969,2.0571289-.2363281.2358398-.7753906.5395508-1.4501953.640625v13.0839844c1.921875-1.3486328,3.5742188-3.0683594,4.9912109-5.1928711h-1.3828125c-.8095703.0336914-1.5517578.2021484-2.2929688.4716797l-.8769531-1.7197266c1.1464844.1689453,2.2929688.2363281,3.5068359.2700195h1.6191406c.5732422-1.0117188,1.1123047-2.0908203,1.5507812-3.2373047h-1.7197266c-1.0791016.0336914-2.0908203.2021484-3.1025391.472168l-.8427734-1.6860352c1.3486328.168457,2.6972656.2358398,4.1142578.2695312h1.921875c.5390625-1.6186523.9775391-3.3720703,1.28125-5.2944336l.2021484.0336914v-2.5288086h-7.0478516v.7416992c.0673828.7080078.0341797.9443359.1015625,1.2475586-.1015625.4047852-.9101562.7421875-1.7871094.7421875-.3378906,0-.4726562-.3374023-.4726562-.6748047.0673828-.3706055.0673828-.5732422.1347656-1.1464844v-.9101562h-3.5742188c-1.7539062.0336914-3.3720703.2021484-5.0585938.4716797l-.7753906-1.7197266c1.484375.1689453,2.9677734.2363281,4.4853516.2700195h4.9228516c0-1.1464844-.0673828-2.5966797-.2021484-3.6083984,3.40625,1.0117188,3.40625,1.3491211,2.7988281,1.7197266l-.5732422.3710938v1.5175781h7.0478516c0-1.1464844-.0673828-2.5966797-.2021484-3.6083984,3.4394531,1.0117188,3.4394531,1.3491211,2.8330078,1.7197266l-.5732422.3710938v1.5175781h5.0576172l.6748047-.9780273c.3710938-.472168.640625-.9780273.9101562-.9780273.4052734,0,2.6308594,1.8886719,2.6308594,2.3945312-.0673828.3706055-.3710938.5395508-.8095703.5395508h-8.4638672v2.0229492c0,.2026367-.640625.5732422-1.6191406.6411133,2.4619141.4379883,2.4619141.7753906,1.8544922,1.0791016l-.5732422.2695312c-.3369141,1.3491211-.6738281,2.5966797-1.1464844,3.7768555h5.8681641l.6064453-.809082c.3378906-.4047852.5732422-.8432617.84375-.8432617.4042969,0,2.3935547,1.5849609,2.3935547,2.0908203-.1005859.3374023-.3710938.5058594-.8427734.5058594h-6.5761719c.6074219,1.1801758,1.3496094,2.2592773,2.2265625,3.2373047h2.1582031l.6064453-.8432617Zm-22.0537109.640625c0,1.3154297,0,2.6977539-.1015625,4.1479492h3.40625v-5.2944336h-3.3046875v1.1464844Zm3.3046875-7.1152344h-3.3046875v4.9912109h3.3046875v-4.9912109Zm3.2705078,18.2436523c1.3154297-.4047852,4.2490234-1.4838867,7.0820312-2.6303711l.1679688.4384766c-1.1464844.8432617-2.8994141,2.1245117-5.1923828,3.6757812-.0341797.3710938-.2705078.7080078-.5732422.7753906l-.7421875-1.112793-.7421875-1.1464844Zm1.9228516-20.1655273c4.9228516,2.1245117,2.9667969,5.7661133,1.28125,4.1811523-.0673828-1.28125-.8769531-3.0009766-1.6523438-3.9790039l.3710938-.2021484Zm13.3193359,22.3911133c-1.0449219-1.6860352-3.7089844-3.6079102-5.8339844-4.7548828v3.3725586c0,1.6523438-.2695312,2.5625-2.6640625,2.8325195-.0673828-.5395508-.2021484-1.0454102-.5048828-1.3491211-.3710938-.2695312-.9443359-.5058594-1.9902344-.640625v-.5395508s2.2255859.2026367,2.7314453.2026367c.4384766,0,.5732422-.1689453.5732422-.6074219v-5.1254883c0-1.753418-.1005859-3.8442383-.3369141-5.2944336,3.2705078,1.0117188,3.2705078,1.3491211,2.7314453,1.6860352l-.5400391.3037109v4.5859375c.4726562.0673828.9111328.1689453,1.3828125.2700195.7421875-1.4165039,1.4501953-3.3720703,1.7197266-4.7548828,2.7988281,1.4838867,2.7988281,1.8208008,2.2597656,1.9560547l-.5400391.1010742c-.6738281.7753906-1.7871094,1.921875-2.8994141,2.8662109,6.5419922,1.8208008,6.0693359,5.7666016,3.9111328,4.8896484Zm-5.4960938-16.3886719h-1.8886719c-.5058594,1.1801758-1.0449219,2.2592773-1.6181641,3.2373047h4.8896484c-.5400391-1.0117188-.9785156-2.0908203-1.3828125-3.2373047Zm5.5976562-4.5527344l-.6074219.2026367c-.9101562,1.2138672-2.0566406,2.4951172-3.0683594,3.3383789l-.5058594-.3374023c.7753906-1.4833984,1.4160156-3.5742188,1.6865234-4.9907227l1.6523438.8432617c1.4492188.4042969,1.4492188.7416992.8427734.9438477Z"/>
          <path class="cls-1" d="m101.4511719,29.3093262c6.9121094.8432617,5.6982422,5.7329102,3.3720703,4.4179688-.5400391-1.4838867-2.2255859-3.1699219-3.6757812-4.0805664l.3037109-.3374023Zm1.7529297,13.1181641c.4052734,0,.5058594-.0336914.8769531-.7084961q.6074219-1.1801758,7.1152344-14.5678711l.5732422.2026367c-1.6523438,4.1474609-4.8554688,11.9711914-5.328125,13.5224609-.3710938,1.0454102-.5732422,2.0571289-.5732422,2.9335938,0,1.4501953.9443359,2.9677734.8095703,5.6992188-.0673828,1.4501953-.6748047,2.2929688-1.8212891,2.2929688-.6064453,0-.9443359-.6069336-1.0117188-1.6860352.4384766-3.4394531.2363281-6.0024414-.4716797-6.5083008-.5058594-.3374023-.9785156-.4047852-1.6865234-.472168v-.7080078h1.5175781Zm.8769531-20.7055664c7.0820312,1.112793,5.8339844,6.1376953,3.4394531,4.7885742-.5732422-1.5849609-2.3271484-3.4731445-3.7431641-4.4511719l.3037109-.3374023Zm22.2900391,1.3491211c.3037109-.3710938.5400391-.7758789.8095703-.7758789.4042969,0,2.4619141,1.7875977,2.4619141,2.293457-.203125.2695312-.7421875.5395508-1.4169922.6743164v3.9116211c.0673828,3.8779297.1347656,5.1933594.2705078,7.5874023-.3037109.4047852-1.3154297.9106445-2.0234375.9106445-.3037109,0-.4384766-.3374023-.4384766-.6743164.0673828-.2363281.0673828-.3710938.1347656-.7758789v-.7416992h-4.8222656c1.3828125,6.8457031,4.9238281,11.9375,9.9814453,14.6352539l-.1005859.3037109c-.9111328.0673828-1.6523438.6743164-2.0576172,1.6860352-4.6875-3.4399414-7.3847656-8.9365234-8.53125-16.625h-5.5302734c-.2363281,5.7324219-1.5175781,12.105957-7.0146484,16.6586914l-.4716797-.4047852c4.7548828-5.4628906,5.5302734-12.2412109,5.5302734-19.0864258v-4.9912109c0-1.6860352-.1015625-3.7431641-.3037109-5.1591797l2.765625,1.3486328h10.2177734l.5390625-.7753906Zm-.2021484,11.3979492v-9.6445312h-10.9931641v7.7900391c0,.6069336,0,1.2138672-.0341797,1.8544922h11.0273438Z"/>
        </g>
      </g>
      <g>
        <g>
          <path class="cls-3" d="m419.2109375,9.6911621l-1.6699219-.7329102c.8144531-2.6601562,2.3212891-4.8049316,4.5205078-6.4335938,2.1982422-1.6289062,4.5732422-2.4433594,7.125-2.4433594,2.8505859,0,5.0087891.6789551,6.4746094,2.0361328,1.4658203,1.357666,2.1992188,3.0678711,2.1992188,5.1306152,0,1.357666-.3261719,2.6264648-.9775391,3.807373-.6513672,1.1806641-1.6152344,2.2739258-2.890625,3.277832-.5439453.4345703-3.0683594,2.1855469-7.5742188,5.2529297,2.8232422.6513672,4.8662109,1.7304688,6.1279297,3.2370605,1.2626953,1.5065918,1.8935547,3.373291,1.8935547,5.598877,0,3.5566406-1.3164062,7.4179688-3.9492188,11.5847168-2.6337891,4.1674805-6.3798828,7.5065918-11.2392578,10.0170898-4.859375,2.5112305-9.8398438,3.7666016-14.9433594,3.7666016-.5439453,0-1.3583984-.013916-2.4433594-.0407715l.3662109-1.7102051c3.3388672,0,6.6103516-.590332,9.8134766-1.7712402s6.0195312-2.8840332,8.4492188-5.1103516c2.4296875-2.2255859,4.390625-4.7297363,5.8837891-7.5126953,1.4931641-2.7824707,2.2402344-5.3813477,2.2402344-7.7978516,0-1.9812012-.5371094-3.5490723-1.6083984-4.703125-1.0732422-1.1535645-2.4375-1.7304688-4.0927734-1.7304688-1.0859375,0-2.3886719.3937988-3.9091797,1.1806641-2.1445312,1.0861816-3.6914062,2.104248-4.6416016,3.0539551-.625-.5700684-1.0048828-1.0720215-1.140625-1.5065918,1.6289062-1.4111328,3.6914062-2.8769531,6.1894531-4.3977051,3.6376953-2.1713867,6.09375-3.800293,7.3701172-4.8862305,1.7373047-1.4384766,3.0273438-2.9179688,3.8691406-4.4384766.8408203-1.5200195,1.2617188-3.1081543,1.2617188-4.7641602,0-1.2216797-.4208984-2.232666-1.2617188-3.0336914-.8417969-.800293-1.9550781-1.2011719-3.3398438-1.2011719-1.4658203,0-2.9453125.4956055-4.4384766,1.4863281-1.4931641.9912109-2.7148438,2.5856934-3.6640625,4.7844238Z"/>
          <path class="cls-3" d="m441.5253906,53.2617188c.0263672-.7321777.1425781-1.2138672.3457031-1.4440918.2041016-.2304688.7255859-.4543457,1.5673828-.671875,3.4208984-.8679199,7.0986328-2.9089355,11.0351562-6.123291s7.1728516-6.6315918,9.7119141-10.2531738c2.5380859-3.6213379,4.9267578-8.1445312,7.1669922-13.5695801,2.2392578-5.4248047,3.359375-9.5615234,3.359375-12.4094238,0-2.1428223-.4892578-3.7836914-1.4667969-4.9233398-.9765625-1.1386719-2.1308594-1.7087402-3.4609375-1.7087402-2.0634766,0-4.3095703.9013672-6.7392578,2.7038574s-4.5195312,4.5671387-6.2705078,8.293457c-1.7509766,3.7270508-2.6259766,6.986084-2.6259766,9.7770996,0,1.4099121.4072266,2.5756836,1.2216797,3.4968262.8144531.9213867,1.7236328,1.3820801,2.7275391,1.3820801.6787109,0,1.4589844-.1286621,2.3417969-.3869629.8818359-.2575684,1.703125-.6445312,2.4628906-1.1604004.1630859,0,.2851562.0681152.3671875.2036133.1630859.2441406.2441406.5974121.2441406,1.0585938,0,.5974121-.3808594,1.126709-1.140625,1.5881348-1.5205078.9504395-3.4335938,1.4250488-5.7412109,1.4250488-1.3027344,0-2.5722656-.345459-3.8066406-1.0371094-1.2363281-.690918-2.2060547-1.7819824-2.9121094-3.2734375-.7060547-1.4907227-1.0585938-3.1035156-1.0585938-4.8391113,0-5.6384277,2.4296875-10.7895508,7.2890625-15.4523926,4.1796875-3.958252,8.3740234-5.9375,12.5820312-5.9375,3.1210938,0,5.6191406,1.0244141,7.4921875,3.0725098,1.8730469,2.0478516,2.8095703,5.1330566,2.8095703,9.2558594,0,2.387207-.2578125,4.638916-.7734375,6.7543945-.9501953,3.7709961-2.5039062,7.5209961-4.6621094,11.2507324s-4.9208984,7.1953125-8.2861328,10.3962402c-2.5527344,2.4411621-5.3896484,4.6928711-8.5107422,6.7543945-4.0449219,2.6313477-7.3837891,4.326416-10.0166016,5.0854492-1.765625.4885254-2.7695312.7871094-3.0136719.8952637-.515625.2167969-.8691406.3256836-1.0585938.3256836-.2714844,0-.6660156-.1762695-1.1806641-.5288086Z"/>
        </g>
        <g>
          <path class="cls-1" d="m483.5068359,40.8532715c.1699219-.2548828.2890625-.5097656.4248047-.5097656.2041016,0,1.2070312.96875,1.2070312,1.2236328-.0341797.1870117-.1865234.2719727-.4082031.2719727h-2.0732422v5.456543c.8154297-.3056641,1.6660156-.6459961,2.5498047-.9858398l.0849609.237793c-1.1728516.7143555-2.8388672,1.7509766-5.0146484,2.9750977-.0507812.2036133-.1699219.3569336-.3232422.4248047l-.6796875-1.4277344c.4931641-.1362305,1.3261719-.4418945,2.3457031-.815918v-5.8647461h-.6796875c-.4082031.0170898-.7988281.1020508-1.1904297.2382812l-.4248047-.8500977c.5097656.0849609,1.0195312.1191406,1.5644531.1362305h.7304688v-1.0029297c0-1.15625-.0683594-2.5498047-.2207031-3.4848633,1.8691406.5268555,1.8691406.6967773,1.5634766.8837891l-.3056641.1870117v3.4169922h.5439453l.3056641-.5102539Zm8.9755859-3.6376953c.1865234-.2548828.3398438-.5097656.4755859-.5097656.2041016,0,1.359375.9858398,1.359375,1.2407227-.0507812.1870117-.203125.2719727-.4414062.2719727h-4.2324219v6.6806641h2.8046875l.3564453-.5102539c.1875-.2548828.3398438-.5097656.4765625-.5097656.2041016,0,1.3769531,1.0029297,1.3769531,1.2578125-.0341797.1870117-.2041016.2719727-.4257812.2719727h-4.5888672v2.0737305c.0341797,2.0400391.0673828,2.7197266.1357422,3.9946289-.1357422.1699219-.4931641.4589844-1.0195312.4589844-.1699219,0-.3408203-.1699219-.3408203-.3398438.0859375-1.3261719.1367188-2.0058594.1708984-4.0117188v-2.1757812h-1.9892578c-.8837891.0170898-1.7001953.1020508-2.5498047.237793l-.4248047-.8837891c.7480469.0849609,1.4960938.1191406,2.2607422.1362305h2.703125v-6.6806641h-1.4287109c-.8837891.0170898-1.6992188.1020508-2.5498047.2382812l-.4414062-.8842773c.7480469.0849609,1.4960938.1191406,2.2607422.1362305h5.7109375l.3408203-.4931641Zm-7.0205078,2.0571289c2.90625,2.9233398,1.8867188,5.5751953.8330078,4.4873047-.0175781-1.3769531-.5957031-3.1958008-1.0878906-4.4023438l.2548828-.0849609Zm7.9375.7817383l-.2880859.1191406c-.6630859,1.3769531-1.5136719,2.9067383-2.3125,3.9775391l-.2714844-.1362305c.1533203-.390625.3232422-.8496094.4755859-1.3598633.3574219-1.0708008.7314453-2.6005859.7988281-3.5522461l1.0546875.4418945c.8496094.2207031.8496094.390625.5429688.5097656Z"/>
          <path class="cls-1" d="m502.4960938,45.2561035c.1699219-.2382812.3056641-.4931641.4414062-.4931641.2041016,0,1.2412109.9521484,1.2412109,1.2070312-.0341797.1870117-.2041016.2719727-.4423828.2719727h-2.5664062v3.7397461c.9345703.3398438,2.0732422.4077148,3.5185547.4077148,1.5810547,0,5.3037109,0,6.9179688-.0507812v.2207031c-.4414062.0849609-.6621094.4418945-.6962891.8671875h-6.2558594c-3.3652344,0-5.1162109-.6289062-6.2548828-3.8759766-.3398438,1.6318359-.9013672,3.2299805-1.9716797,4.3686523l-.1708984-.2041016c.6806641-1.1386719,1.0878906-2.7026367,1.2919922-4.3173828.1367188-1.1049805.0849609-4.4194336-.0507812-3.484375,1.8359375.1015625,1.8359375.2714844,1.546875.4418945l-.2714844.1699219c-.0517578.7817383-.1367188,1.6147461-.2724609,2.4477539.4423828,1.1728516.9863281,1.9545898,1.6660156,2.4814453v-3.3994141c0-1.1557617-.0683594-2.5498047-.2207031-3.4848633,1.8183594.5268555,1.8183594.6972656,1.5126953.9008789l-.2890625.1870117v2.0737305h1.0029297l.3232422-.4755859Zm.0673828-3.6889648c.1875-.237793.3232422-.4755859.4589844-.4755859.2041016,0,1.2919922.9345703,1.2919922,1.1899414-.0507812.1865234-.1865234.2714844-.4248047.2714844h-4.5722656c-.8847656.0170898-1.7001953.1020508-2.5498047.2382812l-.4248047-.8837891c.7470703.0849609,1.4951172.1186523,2.2607422.1357422h1.2236328v-2.6347656h-.8837891c-.5439453.0170898-1.0537109.1020508-1.5644531.2382812l-.4414062-.8842773c.6455078.0849609,1.2919922.1191406,1.9716797.1362305h.9179688c0-.8671875-.0507812-1.9379883-.1699219-2.6518555,1.7841797.5268555,1.7841797.6967773,1.4960938.8837891l-.2890625.1870117v1.5810547h1.0537109l.3056641-.4589844c.1699219-.2382812.3056641-.4760742.4423828-.4760742.2041016,0,1.2744141.9179688,1.2744141,1.1728516-.0507812.1870117-.2041016.2719727-.4248047.2719727h-2.6513672v2.6347656h1.3769531l.3222656-.4760742Zm7.4111328-4.6572266c.1367188-.1870117.2382812-.3740234.3740234-.3740234.2041016,0,1.1386719.8500977,1.1386719,1.1049805-.1181641.1186523-.3056641.2036133-.6113281.237793-.1191406,2.4648438-.390625,3.8754883-.9521484,4.3857422-.3564453.3056641-.9003906.4589844-1.4785156.4589844,0-.3061523-.0683594-.5952148-.2724609-.7651367-.2041016-.152832-.78125-.2890625-1.3085938-.3740234l.0166016-.2890625c.5439453.0512695,1.5810547.1191406,1.8701172.1191406s.4082031-.0170898.5273438-.1191406c.2890625-.2719727.4755859-1.4956055.578125-3.5356445h-2.3974609c-.1865234,1.9887695-.8154297,4.1308594-3.8417969,5.6948242l-.2373047-.2553711c2.4130859-1.6655273,2.8388672-3.6713867,2.9570312-5.4394531h-.8320312c-.5107422.0170898-1.0029297.1020508-1.4960938.2382812l-.4423828-.8671875c.7480469.0849609,1.4960938.1191406,2.2607422.1362305h3.8925781l.2548828-.3569336Zm-.4755859,6.4760742c.1533203-.1870117.2714844-.390625.4082031-.390625.2041016,0,1.2236328.9008789,1.2236328,1.1557617-.0849609.1191406-.3574219.2548828-.6796875.3227539v1.5297852c.0341797,1.5302734.0507812,2.0400391.1191406,2.9750977-.1367188.2036133-.6464844.4755859-1.0205078.4755859-.1523438,0-.2207031-.1699219-.2207031-.3398438.0341797-.1357422.0341797-.2041016.0683594-.4077148v-.3911133h-3.7226562v.3398438c.0332031.3398438.0166016.4418945.0507812.578125-.0507812.1870117-.5097656.4418945-.9355469.4418945-.1699219,0-.2714844-.1699219-.2714844-.3398438.0507812-.5952148.0683594-.9008789.1015625-1.8017578v-1.0712891c0-1.0708008-.0673828-2.4135742-.203125-3.2973633l1.3427734.6118164h3.4667969l.2724609-.3911133Zm-3.8242188,4.4365234h3.7226562v-3.5522461h-3.7226562v3.5522461Z"/>
        </g>
        <g>
          <path class="cls-1" d="m315.1894531,29.6960449l-.2080078-.3642578c2.8339844-1.7421875,6.0849609-4.8359375,8.2949219-7.8261719,1.0400391-1.3520508,1.8203125-2.9121094,2.1054688-4.3422852l3.25,1.0400391c-.0517578.3120117-.3896484.4160156-1.0136719.4941406,2.2617188,3.3803711,6.421875,6.2924805,10.8164062,8.2680664l-.0517578.3642578c-.7539062.15625-1.3779297.7539062-1.5341797,1.4042969-4.0566406-2.262207-7.8779297-5.8505859-9.671875-9.7246094-2.3925781,3.8740234-7.3330078,8.3461914-11.9873047,10.6865234Zm17.0830078,2.9638672c.3125-.3637695.5458984-.7539062.7539062-.7539062.3125,0,2.1064453,1.4301758,2.1064453,1.8203125-.078125.2597656-.3125.3896484-.6767578.3896484h-7.1240234v5.590332h6.7607422l.5722656-.8061523c.3115234-.4160156.5712891-.8320312.7792969-.8320312.3125,0,2.2363281,1.5859375,2.2363281,1.9760742-.078125.2861328-.3378906.3901367-.7021484.3901367h-16.8740234c-1.3525391.0258789-2.6005859.15625-3.9003906.3642578l-.7021484-1.300293c1.1435547.1298828,2.2880859.1821289,3.4580078.2080078h6.6826172v-5.590332h-2.3662109c-1.3525391.0263672-2.6005859.15625-3.9003906.3642578l-.6757812-1.300293c1.1435547.1303711,2.2880859.1821289,3.4580078.2080078h3.484375v-4.9399414h-2.0546875c-1.2998047.0258789-2.5742188.1557617-3.8476562.3637695l-.6240234-1.3256836c1.1435547.1298828,2.2880859.1816406,3.4580078.2080078h8.3984375l.5195312-.7021484c.2861328-.3378906.4941406-.7021484.7021484-.7021484.3125,0,2.0283203,1.3520508,2.0283203,1.7421875-.0517578.2861328-.3378906.4160156-.6503906.4160156h-6.2402344v4.9399414h4.3945312l.5458984-.7280273Z"/>
          <path class="cls-1" d="m359.9882812,19.1657715c.2861328-.3901367.5205078-.8061523.7285156-.8061523.3115234,0,2.1582031,1.5336914,2.1582031,1.9238281-.0527344.2861328-.3125.4160156-.6503906.4160156h-17.4726562v17.9667969h15.6523438l.5986328-.8320312c.3378906-.4160156.5976562-.8320312.8056641-.8320312.3115234,0,2.2880859,1.6381836,2.2880859,2.027832-.078125.2861328-.2861328.4160156-.6503906.4160156h-18.6943359v.4682617c.0517578.4418945.0263672.5981445.078125.7539062-.078125.2861328-.6503906.7543945-1.4824219.7543945-.2597656,0-.5458984-.2602539-.5458984-.5205078.15625-2.2358398.234375-3.3798828.2861328-6.7597656v-9.9326172c0-1.7680664-.1044922-3.9003906-.3378906-5.3300781l2.2880859,1.065918h14.4306641l.5195312-.7797852Zm-13.5986328,18.2524414l-.2851562-.3637695c2.5732422-1.8461914,5.1992188-4.5761719,7.4101562-7.878418-1.6904297-1.6123047-3.7705078-3.2241211-6.1884766-4.706543l.2333984-.4160156c2.7822266,1.3525391,4.9921875,2.6782227,6.7089844,3.9262695.3115234-.5200195.6240234-1.065918.9355469-1.6118164.8320312-1.5083008,1.6386719-3.5625,1.9238281-4.9921875,2.7304688,1.2739258,2.7304688,1.5341797,2.2109375,1.6899414l-.4941406.1298828c-.9619141,2.105957-2.0546875,4.0302734-3.2763672,5.7724609,6.1357422,4.9399414,4.8359375,8.3720703,3.1201172,6.9941406-.6757812-1.5600586-2.0283203-3.5883789-4.0566406-5.6943359-2.3916016,3.0683594-5.2255859,5.4863281-8.2421875,7.1503906Z"/>
          <path class="cls-1" d="m383.1279297,23.0397949c.234375-.2861328.390625-.5981445.5986328-.5981445.3115234,0,1.8203125,1.3261719,1.8203125,1.7163086-.1826172.2080078-.5722656.4160156-1.0664062.5195312v5.2001953c.0517578,3.1201172.1044922,4.1601562.2080078,6.1103516-.2080078.3120117-.9882812.7021484-1.4824219.7021484-.2333984,0-.3378906-.2597656-.3378906-.5200195.0527344-.1821289.0527344-.2861328.1044922-.5717773v-.5722656h-8.8408203v1.2739258c0,.1821289-.6240234.5722656-1.2480469.5722656-.2597656,0-.4941406-.2602539-.4941406-.5200195.1308594-1.7939453.1826172-2.6782227.234375-5.3823242v-2.9643555c0-1.7675781-.1035156-3.8999023-.3378906-5.3300781l2.0019531.9360352h3.4580078v-3.4838867h-6.1357422c-1.3525391.0258789-2.6005859.1557617-3.9003906.3637695l-.6757812-1.3256836c1.1435547.1298828,2.2880859.1816406,3.4580078.2080078h15.8603516l.5722656-.8061523c.3115234-.3901367.5722656-.8061523.7792969-.8061523.3125,0,2.2890625,1.5600586,2.2890625,1.9501953-.078125.2861328-.3125.4160156-.6503906.4160156h-9.984375v3.4838867h3.3535156l.4160156-.5717773Zm3.953125,15.418457v-10.0625c0-1.7680664-.1044922-3.8999023-.3388672-5.3300781,2.8349609.8061523,2.8349609,1.065918,2.3925781,1.3520508l-.4423828.2861328v9.6464844c.0527344,3.1201172.1044922,4.1601562.2080078,6.1098633-.2080078.3642578-.9101562.7543945-1.4814453.7543945-.3378906,0-.4423828-.2602539-.4423828-.5205078.0517578-.2597656.0517578-.3896484.1044922-.7797852v-.6762695h-17.1347656v.5205078c.0517578.4936523.0253906.6757812.078125.8579102-.078125.3378906-.7548828.7539062-1.3525391.7539062-.3115234,0-.5976562-.2602539-.5976562-.5200195.1552734-2.2363281.2333984-3.3798828.2861328-6.7602539v-5.668457c0-1.7675781-.1044922-3.8999023-.3388672-5.3300781,2.8085938.8061523,2.8085938,1.0664062,2.3662109,1.3520508l-.4414062.2602539v13.7543945h17.1347656Zm-9.3349609-14.0922852h-3.6142578v4.315918h3.6142578v-4.315918Zm-3.6142578,5.0698242v4.8100586h3.6142578v-4.8100586h-3.6142578Zm8.8408203-5.0698242h-3.6142578v4.315918h3.6142578v-4.315918Zm-3.6142578,9.8798828h3.6142578v-4.8100586h-3.6142578v4.8100586Z"/>
        </g>
      </g>
    </g>
  </g>
</svg>