<?xml version="1.0" encoding="UTF-8"?>
<svg id="_レイヤー_2" data-name="レイヤー 2" xmlns="http://www.w3.org/2000/svg" viewBox="0 0 166.0959556 64.8328845">
  <defs>
    <style>
      .cls-1 {
        fill: #231815;
      }

      .cls-1, .cls-2 {
        stroke-width: 0px;
      }

      .cls-2 {
        fill: #221714;
      }
    </style>
  </defs>
  <g id="_レイヤー_1-2" data-name="レイヤー 1">
    <g>
      <g>
        <path class="cls-2" d="m19.4620298,31.9164366h3.1532188c1.031567,0,2.3372681.1772044,2.3372681,1.3765028v10.7985377s-3.540938,1.2828941-9.9552588,1.2828941c-6.4069686,0-14.997258-3.4749176-14.997258-13.1056264,0-9.5990695,8.9425976-13.3649061,15.563532-13.3649061,2.9665615,0,6.6913059.1766043,6.6913059,1.8206594v3.2162381c-2.5180737-2.0227919-3.5328355-2.3818318-7.3549598-2.3818318-3.8207739,0-10.6564242,2.477111-10.6564242,10.4841509,0,8.0166831,9.174869,12.778096,16.790759,9.7654704v-6.1388561c0-1.2864752-.074723-3.753233-1.5721831-3.753233Z"/>
        <path class="cls-2" d="m67.4071611,44.7318739h8.1045856c-2.2448397-.8228528-3.1643222-3.4713165-3.899248-5.4018096-.7604336-1.9232909-6.6209341-15.9314446-7.2787362-17.8736413-.6469988-1.9144382-1.5832864-1.9144382-2.324064-1.9144382h-4.6602818c2.2461901.7340255,1.0219681,2.2967556.6534508,3.3847399-.3721143,1.1092908-8.2034703,20.1588434-8.2034703,20.1588434-2.7071317-.7275735-9.4899619-10.5428592-9.4899619-10.5428592,9.0452253-2.5642879,7.6407938-13.000724-1.1919662-13.000724h-10.1522693c2.0397267.4432362,1.85502,2.5663885,1.85502,4.2024911v17.3336254c0,2.382582-.7479798,3.0133758-1.9421967,3.6537725h7.4311833c-2.0397267-.9100296-1.4997108-3.0214783-1.4997108-4.0156837v-18.6978445h4.0156838c2.1356062,0,3.7173922,2.5686392,3.7173922,4.3166762,0,2.8214668-2.2331361,3.9284867-4.4683729,4.7570615-2.2287848.8140001-1.0198634,2.649364,0,4.1262677,1.0432705,1.4602486,4.0134331,5.5798944,5.7797759,7.5947333,1.7759419,2.0080669,3.3335704,1.9187895,4.1951351,1.9187895h6.7060103c-2.6001449-.8228528-1.2162737-2.8324202-.8536082-3.8317272.3722603-1.0302165,2.0616334-5.3250061,2.0616334-5.3250061h10.041681s1.214023,3.1086751,2.3299158,5.8633715c1.1208444,2.7591977.2819366,3.1160073-.9275806,3.2933618Zm-10.4292585-12.0850129l3.8339779-9.8131649,4.0764524,9.8131649h-7.9104303Z"/>
        <path class="cls-2" d="m148.9287089,44.7318739h8.1170374c-2.2367306-.8228528-3.1694237-3.4713165-3.8983477-5.4018096-.7466229-1.9232909-6.6188335-15.9314446-7.2671827-17.8736413-.6572019-1.9144382-1.5832864-1.9144382-2.3312662-1.9144382h-4.6508227c2.2389817.7340255,1.0213576,2.2967556.6557015,3.3847399-.3839742,1.1092908-8.1968745,20.1588434-8.1968745,20.1588434-.5245612,1.1883651-1.2894962,1.2168739-1.7546391,1.6463058h6.6868044c-2.6075011-.8228528-1.2015692-2.8324202-.8417586-3.8317272.3589103-1.0302165,2.0455785-5.3250061,2.0455785-5.3250061h10.0686934s1.2147732,3.1086751,2.3246642,5.8633715c1.1011883,2.7591977.2681324,3.1160073-.9575878,3.2933618Zm-10.4041967-12.0850129l3.8038125-9.8131649,4.1102128,9.8131649h-7.9140253Z"/>
        <path class="cls-2" d="m120.2844522,45.2087204c.9334368-.8410084,1.7751954-1.4769037,1.7751954-4.410475v-17.31605c0-1.3738221-.0717163-2.9299502-1.7751954-3.4969744h7.1828568c-.7406275.6505999-1.6249992,1.471202-1.6249992,3.3079163v17.5051081c0,1.5597491-.3398544,3.8551544,1.7385841,4.410475h-7.2964417Z"/>
        <path class="cls-2" d="m81.7347586,25.4053362s-.0915281,13.8322997-.0915281,15.3929092c0,1.5597491.205113,3.8551544,2.2463401,4.410475h-6.8071413c.9385383-.8410084,1.6851677-1.4769037,1.6851677-4.410475,0-2.9239284.1743536-15.9527312.1743536-17.31605,0-1.3738221-.1743536-2.9299502-1.8595213-3.4969744h5.2231047l15.6324027,19.3448433v-15.7636931c0-1.0066593.1956653-2.9305503-1.9442973-3.6639757h6.9813449c-.8411532.6498497-2.0674852.9121302-2.0674852,3.5797998v22.7376857s-1.9283925.3530585-5.1008171-3.4067967c-3.1715244-3.7511525-14.0719233-17.4077482-14.0719233-17.4077482Z"/>
        <path class="cls-2" d="m126.2262777,64.7037598c-20.4782915-16.9820674-28.3036457-36.9752599-.3003923-64.2692454.8710235-.8389287,1.7106756-.3377747,1.0198633.4447366-12.2857745,13.8001898-25.9576749,35.9025803-.2858378,62.9753978.4045243.433033.2432247,1.3070516-.4336332.8491109Z"/>
      </g>
      <path class="cls-2" d="m162.6540982,44.9505047c-1.8978446,0-3.4418574-1.5440128-3.4418574-3.4418574s1.5440128-3.4418574,3.4418574-3.4418574,3.4418574,1.5440128,3.4418574,3.4418574-1.5440128,3.4418574-3.4418574,3.4418574Zm0-6.4466535c-1.656906,0-3.0047961,1.3478901-3.0047961,3.0047961s1.3478901,3.0047961,3.0047961,3.0047961,3.0047961-1.3478901,3.0047961-3.0047961-1.3478901-3.0047961-3.0047961-3.0047961Z"/>
      <path class="cls-2" d="m163.4842585,43.3759744c-.0759735-.0708517-.121643-.1265514-.121643-.3950197v-.445811c0-.2633465-.0808819-.6077883-.4761151-.6077883h-.9471083v1.448619h-.6837618v-3.6975211h1.7422696c.6888837,0,1.1398165.4255372,1.1398165,1.002808,0,.243286-.0810953.4660849-.2279206.633184-.1419169.1621907-.2635599.2279206-.5774843.2987723.3595939.0507913.7091575.1570689.7091575.8510744v.3747459c0,.3698375.1367951.4660849.2379508.5369366h-.7951612Zm-.5774843-3.1200369h-.9673822v1.0939336h.8559828c.3798677,0,.6129101-.1974032.6129101-.5772708,0-.3344116-.1976166-.5166627-.5015107-.5166627Z"/>
    </g>
    <g>
      <path class="cls-1" d="m19.7728267,63.5193065l-.1196289-.1801758c2.5546875-1.4150391,4.4975586-4.3295898,4.8691406-8.5390625v-.8994141h-.8876953c-.5512695.0117188-1.0791016.0717773-1.6069336.1679688l-.3120117-.6118164c.527832.0600586,1.0556641.0839844,1.5952148.0957031h.9716797l.4794922-.7675781,1.2836914.9838867c-.1801758.2275391-.6000977.359375-1.1757812.4077148l.012207.5874023c.3959961,3.7539062,2.1586914,6.5605469,5.3852539,7.9399414l-.0361328.1435547c-.3959961.012207-.6357422.2402344-.8154297.6835938-1.9311523-1.1152344-3.9580078-3.4418945-4.4736328-6.512207-.7436523,3.0463867-2.5424805,5.2529297-5.1694336,6.5004883Z"/>
      <path class="cls-1" d="m35.5267329,53.0490917c.0961914-.1201172.1679688-.2519531.2641602-.2519531.144043,0,.8154297.5756836.8154297.7553711-.0717773.0839844-.2280273.1801758-.4199219.2163086v1.0791016c.0244141,1.0795898.0361328,1.4394531.0839844,2.0991211-.0957031.1318359-.4677734.2998047-.7075195.2998047h-.0957031v-.5400391h-2.4228516v3.6103516c.0239258,1.4389648.0478516,1.9189453.0961914,2.8183594-.0961914.1679688-.3481445.371582-.684082.371582-.1435547,0-.2758789-.1196289-.2758789-.2397461.0722656-1.03125.1083984-1.559082.1323242-3.1181641v-4.8334961c0-.8154297-.0483398-1.7988281-.15625-2.4584961l.9477539.4438477h2.2548828l.1674805-.2519531Zm-.0595703.6118164h-2.4228516v1.1513672h2.4228516v-1.1513672Zm-2.4228516,2.6982422h2.4228516v-1.1992188h-2.4228516v1.1992188Zm2.4584961,5.9125977c0,.0722656-.2998047.2519531-.5996094.2519531-.1196289,0-.1918945-.1196289-.1918945-.2397461.0361328-.4677734.0478516-.6958008.0722656-1.4033203v-.8276367c0-.8154297-.0483398-1.7988281-.15625-2.4584961l.9238281.4316406h2.6503906l.1679688-.2275391c.0957031-.1083984.1557617-.2280273.2519531-.2280273.1435547,0,.8271484.503418.8271484.6835938-.0717773.0957031-.2275391.1918945-.4194336.2280273v1.2231445c.0239258,1.2231445.0356445,1.6313477.0839844,2.3745117-.0961914.144043-.4677734.3359375-.7080078.3359375-.1079102,0-.1557617-.1201172-.1557617-.2397461.0239258-.0600586.0239258-.0961914.0478516-.1918945v-.2158203h-2.7944336v.503418Zm2.7944336-3.909668h-2.7944336v1.3071289h2.7944336v-1.3071289Zm-2.7944336,3.0463867h2.7944336v-1.3793945h-2.7944336v1.3793945Zm2.7827148-4.4375c0,.0717773-.3237305.2397461-.6357422.2397461-.0961914,0-.1679688-.1201172-.1679688-.2397461.0361328-.3837891.0478516-.5878906.0717773-1.175293v-.7197266c0-.7075195-.0356445-1.5952148-.1318359-2.1826172l.9116211.4077148h2.3505859l.1679688-.2402344c.0961914-.1196289.1557617-.2514648.2519531-.2514648.144043,0,.9355469.5756836.9355469.7553711-.0717773.0961914-.2758789.2041016-.5039062.2519531v8.5390625c0,.6357422-.1196289,1.043457-1.2114258,1.1635742-.0239258-.2519531-.0839844-.4677734-.2275391-.5878906-.1801758-.1318359-.4677734-.2275391-.9956055-.3115234v-.1918945s1.1635742.0957031,1.4150391.0957031c.2163086,0,.2880859-.0717773.2880859-.2636719v-5.5532227h-2.5185547v.2641602Zm2.5185547-3.3100586h-2.5185547v1.1513672h2.5185547v-1.1513672Zm-2.5185547,2.6982422h2.5185547v-1.1992188h-2.5185547v1.1992188Z"/>
      <path class="cls-1" d="m52.0843501,56.1550487c.0961914-.1318359.1557617-.2753906.2519531-.2753906.144043,0,.9355469.6474609.9355469.8271484-.0717773.0961914-.2519531.2041016-.4916992.2402344v4.0776367c0,.5996094-.144043,1.0073242-1.2592773,1.1035156-.0483398-.2280273-.1201172-.4199219-.2641602-.5400391-.1796875-.1318359-.503418-.2514648-1.0551758-.3115234v-.1801758s1.2353516.0839844,1.5229492.0839844c.2280273,0,.2998047-.0717773.2998047-.2397461v-4.1499023h-2.7104492v3.418457c.0239258,1.4389648.0483398,1.9189453.0961914,2.8183594-.0961914.1796875-.4560547.3955078-.7319336.3955078-.1557617,0-.2875977-.1196289-.2875977-.2397461.0717773-1.03125.1079102-1.559082.1318359-3.1181641v-3.2744141h-2.6743164v2.2431641c.0239258,1.4389648.0478516,1.9189453.0957031,2.8183594-.0957031.1435547-.3955078.3237305-.7197266.3237305-.1318359,0-.2275391-.1201172-.2275391-.2397461.0478516-.7436523.0717773-1.1157227.0957031-2.2431641v-1.2470703c0-.8154297-.0478516-1.7988281-.1557617-2.4584961l.9716797.4433594h2.6142578v-1.7749023h-2.8183594c-.6235352.012207-1.1992188.0722656-1.7988281.1679688l-.3120117-.6235352c.527832.0600586,1.0551758.0839844,1.5952148.0957031h3.3339844c0-.6113281-.0361328-1.3432617-.1079102-1.8466797,1.2954102.371582,1.2954102.4916992,1.0913086.6352539l-.1918945.1323242v1.0791016h3.2021484l.2641602-.371582c.144043-.1918945.2636719-.3837891.3598633-.3837891.1435547,0,1.0551758.7436523,1.0551758.9233398-.0361328.1318359-.1557617.1918945-.3115234.1918945h-4.737793c.5161133.2397461.5161133.3598633.3359375.4916992l-.1679688.1201172v1.1630859h2.6025391l.1679688-.2758789Z"/>
      <path class="cls-1" d="m64.8519282,55.2317089c.1318359-.1796875.2397461-.3598633.3359375-.3598633.144043,0,.9956055.6958008.9956055.8754883-.0361328.1323242-.1323242.1918945-.2998047.1918945h-3.1425781c.2158203,2.6147461.8754883,4.9536133,2.3867188,6.1650391.1801758.1796875.2519531.1674805.3476562-.0600586.15625-.2880859.3598633-.8637695.4921875-1.3432617l.1557617.0239258-.2041016,1.8227539c.3359375.4677734.3598633.671875.2519531.8037109-.2875977.3598633-.9711914,0-1.4633789-.4438477-1.7026367-1.4628906-2.4584961-3.9575195-2.7460938-6.9682617h-4.2460938c-.6235352.012207-1.1992188.0722656-1.7988281.1679688l-.3115234-.6113281c.5273438.0595703,1.0551758.0839844,1.5947266.0957031h4.7373047c-.0717773-.9594727-.1079102-1.9790039-.1079102-3.0224609,1.2236328.0961914,1.2236328.2158203,1.0078125.3598633l-.2041016.1318359c-.0117188.8515625.012207,1.703125.0717773,2.5307617h1.8950195l.2519531-.3598633Zm-3.9936523,3.0224609c.1201172-.1679688.2158203-.3476562.3115234-.3476562.144043,0,.8759766.6713867.8759766.8515625-.0361328.1318359-.1323242.1918945-.2998047.1918945h-2.1230469v2.7822266c.8276367-.1557617,1.7148438-.3359375,2.6025391-.527832l.0361328.2041016c-1.3554688.4555664-3.2143555,1.03125-5.7929688,1.7387695-.0600586.144043-.1679688.2402344-.2758789.2758789l-.515625-.9594727c.2998047-.0356445.6958008-.1079102,1.175293-.1918945v-2.3745117c0-.7915039-.0478516-1.7871094-.1557617-2.4345703,1.2231445.3598633,1.2231445.4794922,1.043457.5996094l-.1679688.1079102v3.9697266c.3955078-.0839844.8515625-.1679688,1.3193359-.2636719v-3.2143555c0-.8154297-.0483398-1.7988281-.15625-2.4584961,1.2592773.3598633,1.2592773.4794922,1.0673828.6113281l-.1796875.1201172v1.6669922h1.0073242l.2280273-.3476562Zm-.7675781-4.8691406c.1318359-.1679688.2280273-.3481445.3237305-.3481445.144043,0,.9116211.659668.9116211.8398438-.0361328.1318359-.144043.1918945-.3120117.1918945h-2.1948242c-.6235352.0117188-1.1992188.0717773-1.7988281.1674805l-.3120117-.6113281c.527832.0600586,1.0556641.0839844,1.5952148.0957031h1.559082l.2280273-.3354492Zm3.2739258-.3598633c2.519043.2998047,2.1352539,2.0146484,1.331543,1.559082-.2280273-.515625-.8876953-1.1274414-1.4150391-1.4511719l.0834961-.1079102Z"/>
      <path class="cls-1" d="m77.2000727,55.3518261c.1196289-.1557617.2036133-.3237305.2998047-.3237305.1435547,0,.8515625.6235352.8515625.8032227-.0361328.1323242-.1323242.1918945-.2880859.1918945h-2.8662109c.0356445,1.3076172.1796875,2.5786133.4794922,3.6699219.0961914-.1918945.1918945-.3955078.2758789-.6113281.2998047-.7319336.515625-1.7753906.515625-2.4345703,1.2832031.371582,1.2832031.4916992,1.0556641.5874023l-.2158203.0839844c-.3242188,1.2714844-.7675781,2.3388672-1.331543,3.2260742.2998047.6958008.7197266,1.2836914,1.2592773,1.703125.1557617.15625.2280273.15625.3237305-.0600586.1201172-.2514648.2880859-.7675781.4082031-1.1992188l.1435547.0239258-.1435547,1.5952148c.2875977.4077148.2998047.5639648.2158203.6958008-.2280273.3476562-.8515625.0600586-1.2836914-.2998047-.5874023-.4799805-1.03125-1.0795898-1.3911133-1.7871094-.7792969,1.0195312-1.7626953,1.7631836-2.9023438,2.2788086l-.1318359-.1679688c.6118164-.3837891,1.1875-.8515625,1.7148438-1.4033203h-3.4780273v.5639648c0,.0595703-.2158203.2514648-.5517578.2514648-.1079102,0-.2158203-.1196289-.2158203-.2397461.0600586-.7553711.0839844-1.1391602.1079102-2.2788086v-1.2592773c0-.8154297-.0478516-1.7988281-.1557617-2.4584961l.9472656.4316406h2.2788086l.1801758-.2758789c.1079102-.1318359.1796875-.2758789.2758789-.2758789.1435547,0,.7553711.527832.7553711.7075195-.0361328.1323242-.144043.1918945-.2998047.1918945h-1.6069336v1.0917969h.7792969l.15625-.1918945c.0834961-.0961914.1435547-.1918945.2397461-.1918945.144043,0,.7675781.4433594.7675781.6235352-.0600586.0839844-.2158203.1796875-.4199219.2158203v.527832c.0239258.5273438.0239258.7075195.0478516.9951172-.0600586.1323242-.3837891.2880859-.5996094.2880859h-.0839844v-.4199219h-.887207v1.3554688h.7915039l.4316406-.5756836s.4555664.371582.7553711.6713867c.2998047-.3354492.5756836-.7192383.815918-1.1274414-.4677734-1.2709961-.6958008-2.8183594-.7675781-4.5214844h-5.0014648v1.6791992c0,1.6791992-.1201172,4.0898438-1.7270508,5.769043l-.144043-.144043c1.0556641-1.703125,1.1513672-3.7661133,1.1513672-5.612793v-1.2236328c0-.4077148-.0239258-.9233398-.0717773-1.2832031l.9355469.4555664h4.8452148c-.0117188-.2275391-.0117188-.4555664-.0239258-.6835938-.0717773.0239258-.1679688.0361328-.2636719.0361328h-.1323242v-.9355469h-2.2543945v.2641602c.0239258.2514648.0117188.3354492.0356445.4433594-.0356445.144043-.3476562.2641602-.6474609.2641602-.1079102,0-.1557617-.1201172-.1557617-.2397461.0239258-.1323242.0239258-.2041016.0478516-.4082031v-.3237305h-1.4033203c-.6235352.012207-1.1992188.0722656-1.7988281.1679688l-.2758789-.6118164c.527832.0600586,1.0551758.0839844,1.5952148.0961914h1.8828125c0-.4077148-.0239258-.9233398-.0717773-1.2832031,1.2109375.3598633,1.2109375.4794922.9951172.6113281l-.2036133.1323242v.5395508h2.2543945c0-.4077148-.0239258-.9233398-.0717773-1.2832031,1.2231445.3598633,1.2231445.4794922,1.0195312.6113281l-.2041016.1323242v.5395508h1.9072266l.2397461-.3476562c.1318359-.1679688.2280273-.3481445.3237305-.3481445.144043,0,.9355469.671875.9355469.8515625-.0239258.1318359-.1318359.1918945-.2875977.1918945h-3.1186523v.5395508c.7915039.2758789.7915039.3959961.5996094.527832l-.1796875.1318359v.3837891h1.8110352l.2041016-.3115234Zm-5.4331055,1.9306641h-1.0556641v1.0917969h1.0556641v-1.0917969Zm1.546875,1.4511719h-2.6025391v1.1513672h2.6025391v-1.1513672Zm-2.6025391,1.4873047v1.3554688h1.0556641v-1.3554688h-1.0556641Zm4.9536133-6.0205078c1.8105469.3476562,1.3188477,1.6191406.6835938,1.1992188-.1083984-.3837891-.4677734-.8393555-.815918-1.1035156l.1323242-.0957031Z"/>
      <path class="cls-1" d="m88.9359126,58.0261425c.1201172-.1435547.2041016-.2998047.2998047-.2998047.144043,0,.8994141.5756836.8994141.7558594-.0356445.1318359-.1435547.1918945-.2998047.1918945h-1.546875c.5756836.515625,1.2592773.9233398,1.9907227,1.1870117l-.0117188.1318359c-.2880859.0361328-.4799805.2402344-.5878906.5761719-.8515625-.4438477-1.5473633-1.0795898-2.0629883-1.8950195h-2.206543c-.2880859.4077148-.5996094.7675781-.9355469,1.0913086,1.5952148.659668.8876953,1.8466797.3359375,1.2954102-.012207-.3837891-.2402344-.8876953-.4677734-1.1875-.4199219.3598633-.8754883.659668-1.3793945.8994141l-.012207-.012207v1.7275391c0,.5874023-.1079102.9350586-.9711914,1.03125-.0239258-.2041016-.0717773-.3959961-.1801758-.5039062-.1196289-.1079102-.3115234-.1918945-.6835938-.2519531v-.1918945s.7558594.0722656.9477539.0722656c.1557617,0,.2036133-.0722656.2036133-.2280273v-2.3388672h-1.2353516c-.1196289,1.2114258-.4433594,2.4589844-1.3071289,3.40625l-.1557617-.1318359c.8037109-1.4633789.8515625-3.3222656.8515625-5.0849609v-1.6313477c0-.5517578-.0361328-1.2231445-.1079102-1.690918l.9111328.4316406h.9355469l.15625-.2280273c.0957031-.1196289.1557617-.2397461.2514648-.2397461.144043,0,.8999023.5517578.8999023.7314453-.0839844.0839844-.2758789.1918945-.5161133.2280273v4.6533203c.6835938-.4794922,1.2714844-1.0913086,1.7753906-1.8466797h-.4916992c-.2880859.0117188-.5517578.0717773-.815918.1674805l-.3115234-.6113281c.4077148.0600586.8154297.0839844,1.2470703.0957031h.5756836c.2041016-.3598633.3959961-.7436523.5517578-1.1513672h-.6118164c-.3837891.012207-.7431641.0722656-1.1030273.1679688l-.2998047-.5996094c.4794922.0600586.9594727.0839844,1.4628906.0961914h.6835938c.1918945-.5756836.3481445-1.199707.4560547-1.8833008l.0717773.012207v-.8994141h-2.5068359v.2636719c.0244141.2519531.012207.3359375.0361328.4438477-.0361328.144043-.3237305.2636719-.6357422.2636719-.1196289,0-.1679688-.1196289-.1679688-.2397461.0244141-.1318359.0244141-.2041016.0483398-.4077148v-.3237305h-1.2714844c-.6235352.0117188-1.1992188.0717773-1.7988281.1674805l-.2758789-.6113281c.527832.0600586,1.0551758.0839844,1.5952148.0957031h1.7509766c0-.4077148-.0239258-.9233398-.0722656-1.2832031,1.2114258.3598633,1.2114258.4799805.9956055.6118164l-.2041016.1318359v.5395508h2.5068359c0-.4077148-.0239258-.9233398-.0717773-1.2832031,1.2231445.3598633,1.2231445.4799805,1.0073242.6118164l-.2041016.1318359v.5395508h1.7993164l.2397461-.3476562c.1318359-.1679688.2280273-.3476562.3237305-.3476562.144043,0,.9355469.6713867.9355469.8515625-.0239258.1318359-.1318359.1918945-.2875977.1918945h-3.0107422v.7192383c0,.0722656-.2275391.2041016-.5756836.2280273.8754883.1557617.8754883.2758789.659668.3837891l-.2036133.0961914c-.1201172.4794922-.2397461.9233398-.4077148,1.3432617h2.0869141l.2158203-.2880859c.1196289-.144043.2036133-.2998047.2998047-.2998047.1435547,0,.8515625.5634766.8515625.7436523-.0361328.1201172-.1323242.1796875-.2998047.1796875h-2.3388672c.2158203.4199219.4794922.8037109.7915039,1.1513672h.7675781l.2158203-.2998047Zm-7.84375.2280273c0,.4677734,0,.9594727-.0356445,1.4750977h1.2109375v-1.8828125h-1.175293v.4077148Zm1.175293-2.5307617h-1.175293v1.7753906h1.175293v-1.7753906Zm1.1635742,6.4887695c.4677734-.144043,1.5112305-.527832,2.5185547-.9355469l.0600586.1557617c-.4077148.2998047-1.03125.7553711-1.847168,1.3071289-.0117188.1323242-.0957031.2519531-.2036133.2758789l-.2641602-.3955078-.2636719-.4077148Zm.6835938-7.1723633c1.7509766.7558594,1.0551758,2.0507812.4555664,1.4873047-.0239258-.4555664-.3115234-1.0673828-.5874023-1.4150391l.1318359-.0722656Zm4.7373047,7.9638672c-.371582-.5996094-1.3193359-1.2832031-2.074707-1.6914062v1.199707c0,.5874023-.0961914.9111328-.9477539,1.0073242-.0239258-.1918945-.0717773-.3720703-.1796875-.4799805-.1318359-.0957031-.3359375-.1796875-.7075195-.2275391v-.1918945s.7915039.0717773.9711914.0717773c.15625,0,.2041016-.0600586.2041016-.2158203v-1.8232422c0-.6235352-.0361328-1.3671875-.1201172-1.8828125,1.1635742.3598633,1.1635742.4799805.9716797.5996094l-.1918945.1079102v1.6313477c.1679688.0239258.3237305.0600586.4916992.0957031.2636719-.503418.515625-1.1992188.6118164-1.690918.9951172.527832.9951172.6474609.8032227.6958008l-.1918945.0356445c-.2397461.2758789-.6357422.6835938-1.03125,1.0195312,2.3266602.6474609,2.1586914,2.0507812,1.3911133,1.7392578Zm-1.9545898-5.8291016h-.671875c-.1796875.4199219-.371582.8037109-.5756836,1.1513672h1.7392578c-.1918945-.3598633-.3481445-.7436523-.4916992-1.1513672Zm1.9907227-1.6191406l-.2158203.0722656c-.3237305.4316406-.7319336.887207-1.0913086,1.1870117l-.1801758-.1196289c.2758789-.527832.5039062-1.2714844.5996094-1.7749023l.5878906.2998047c.515625.1435547.515625.2636719.2998047.3354492Z"/>
      <path class="cls-1" d="m91.7132563,55.3757519c2.4584961.2998047,2.0268555,2.0390625,1.1992188,1.5712891-.1918945-.527832-.7915039-1.1274414-1.3071289-1.4511719l.1079102-.1201172Zm.6235352,4.6655273c.144043,0,.1796875-.012207.3115234-.2519531q.2163086-.4199219,2.5307617-5.1811523l.2041016.0717773c-.5878906,1.4750977-1.7270508,4.2578125-1.8950195,4.8095703-.1318359.371582-.2041016.7314453-.2041016,1.043457,0,.515625.3359375,1.0551758.2880859,2.0268555-.0239258.515625-.2402344.8154297-.6479492.8154297-.2158203,0-.3354492-.2158203-.3598633-.5996094.15625-1.2231445.0839844-2.1347656-.1674805-2.3149414-.1801758-.1196289-.3481445-.1435547-.6000977-.1674805v-.2519531h.5400391Zm.3115234-7.3642578c2.519043.3959961,2.0751953,2.1831055,1.2236328,1.703125-.2041016-.5634766-.8276367-1.2353516-1.331543-1.5830078l.1079102-.1201172Zm7.9277344.4799805c.1079102-.1318359.1918945-.2758789.2880859-.2758789.1435547,0,.8754883.6357422.8754883.8154297-.0722656.0961914-.2641602.1918945-.5039062.2397461v1.3916016c.0239258,1.3789062.0478516,1.8466797.0961914,2.6982422-.1079102.144043-.4677734.3237305-.7197266.3237305-.1079102,0-.1557617-.1196289-.1557617-.2397461.0239258-.0839844.0239258-.1318359.0478516-.2758789v-.2636719h-1.715332c.4921875,2.4345703,1.7514648,4.2456055,3.550293,5.2050781l-.0361328.1079102c-.3237305.0239258-.5874023.2397461-.7314453.5996094-1.6669922-1.2231445-2.6264648-3.1782227-3.0341797-5.9125977h-1.9672852c-.0839844,2.0385742-.5395508,4.3056641-2.4946289,5.9248047l-.1674805-.144043c1.690918-1.9428711,1.9667969-4.3535156,1.9667969-6.7880859v-1.7753906c0-.5996094-.0361328-1.3310547-.1079102-1.8349609l.9833984.4799805h3.6337891l.1918945-.2758789Zm-.0717773,4.0537109v-3.4301758h-3.909668v2.7705078c0,.2158203,0,.4316406-.012207.659668h3.921875Z"/>
    </g>
  </g>
</svg>