<?xml version="1.0" encoding="UTF-8"?>
<svg id="_レイヤー_2" data-name="レイヤー 2" xmlns="http://www.w3.org/2000/svg" viewBox="0 0 327.9306641 62.4003906">
  <defs>
    <style>
      .cls-1 {
        fill: #231815;
        stroke-width: 0px;
      }
    </style>
  </defs>
  <g id="_レイヤー_1-2" data-name="レイヤー 1">
    <g>
      <path class="cls-1" d="m19.0854492,59.5449219c-.8188477-1.3227539-1.34375-2.7294922-1.7216797-4.2412109-.8398438-3.3383789-1.1967773-6.7397461-1.1967773-10.1621094,0-.8188477.0209961-1.6166992.0629883-2.4355469.1049805-2.6455078.440918-5.2700195.7768555-7.9155273.0419922-.230957.0839844-.4829102.0839844-.7768555,0-.1469727,0-.3149414-.0419922-.5039062-.6088867.440918-.9658203,1.0078125-1.3647461,1.4907227-1.9946289,2.5405273-3.9682617,5.1230469-5.9838867,7.6425781-1.6376953,2.0786133-3.3173828,4.0942383-5.2490234,5.8579102-.5249023.4829102-1.0917969.9448242-1.7216797,1.2597656-.3779297.1679688-.7348633.2729492-1.0498047.2729492-.8818359,0-1.4907227-.671875-1.6376953-1.8686523-.0209961-.2099609-.0419922-.4199219-.0419922-.6298828,0-.4199219.0419922-.8188477.1049805-1.2387695.4619141-3.4013672,1.4067383-6.6767578,2.3935547-9.9521484,2.4775391-8.0625,5.5429688-15.8730469,9.6582031-23.1796875,1.0288086-1.8266602,2.1206055-3.5483398,3.1704102-5.3330078.1049805-.1469727.1889648-.2939453.3149414-.440918.1679688-.1889648.3569336-.2939453.5668945-.2939453.1259766,0,.2519531.0419922.3779297.1259766.2729492.1469727.3989258.3779297.3989258.6508789l-.0419922.2729492c-.1049805.5039062-.4199219.9238281-.671875,1.3647461-1.5117188,2.4775391-3.0024414,4.9760742-4.3041992,7.5795898-4.1992188,8.3144531-7.3486328,17.0698242-9.5952148,26.1821289-.2729492,1.0708008-.4199219,2.1835938-.6088867,3.2543945-.0629883.3779297-.0629883.7978516-.0629883,1.1967773,0,.2729492.1049805.3779297.2519531.3779297.0839844,0,.1679688-.0209961.2519531-.0839844.3779297-.230957.7558594-.5039062,1.0917969-.8188477,1.6796875-1.5117188,3.1704102-3.2124023,4.5981445-4.9760742,2.2675781-2.7924805,4.472168-5.6479492,6.71875-8.4404297.4829102-.6088867.9868164-1.1547852,1.4907227-1.7216797.2729492-.2939453.5668945-.5458984.902832-.7348633.230957-.1049805.440918-.1679688.6508789-.1679688.4619141,0,.8188477.3149414,1.0078125.902832.1049805.3359375.1259766.6508789.1259766.9868164,0,.3569336-.0419922.7348633-.0839844,1.112793-.1889648,1.9106445-.440918,3.7792969-.6298828,5.6899414-.1679688,1.7426758-.2519531,3.4853516-.2519531,5.2070312,0,3.3383789.3359375,6.6347656,1.1967773,9.9101562.2939453,1.1547852.671875,2.2675781,1.2597656,3.2543945.1889648.3149414.3779297.6298828.5878906.9238281.7768555.9868164,1.6166992,1.4697266,2.5825195,1.4697266.5249023,0,1.0917969-.1469727,1.7006836-.4619141.902832-.440918,1.6586914-1.0708008,2.3725586-1.784668,1.6166992-1.6586914,2.918457-3.5483398,4.1362305-5.5639648,3.9892578-6.5087891,6.4248047-13.668457,7.6425781-21.3110352.7348633-4.6821289,1.2177734-9.3642578,1.2177734-14.109375l-.0209961-1.3857422c-.0629883-2.8974609-.2939453-5.815918-.9658203-8.6503906-.3569336-1.4067383-.8608398-2.7294922-1.5537109-3.9682617-.9448242-1.6586914-2.1625977-2.4985352-3.6953125-2.4985352-.5668945,0-1.1757812.1259766-1.8266602.3359375l-.9658203.3989258c-.1259766.0419922-.2519531.1049805-.3569336.1049805-.1259766,0-.230957-.0629883-.2939453-.2099609-.0419922-.0629883-.0629883-.1259766-.0629883-.1889648,0-.1889648.1889648-.3149414.3569336-.3989258,1.112793-.5878906,2.2045898-.9238281,3.2543945-.9238281,1.5117188,0,2.918457.7348633,4.1362305,2.5195312.8608398,1.2597656,1.4277344,2.7084961,1.8266602,4.1992188.6508789,2.5405273,1.0078125,5.1230469,1.112793,7.7265625.0419922,1.2387695.0629883,2.456543.0629883,3.6953125,0,8.4404297-1.1547852,16.7338867-3.7583008,24.7963867-1.7006836,5.3120117-4.1992188,10.2041016-7.4326172,14.6552734-.7558594,1.0078125-1.574707,1.9736328-2.5195312,2.7924805-.3779297.3359375-.7558594.6298828-1.1547852.9238281-1.0917969.7348633-2.1835938,1.0917969-3.2124023,1.0917969-1.6796875,0-3.2124023-.9658203-4.3671875-2.8554688Z"/>
      <path class="cls-1" d="m50.6088867,46.3803711c-1.8056641,0-3.0654297-1.1337891-3.0654297-2.7714844v-.2939453c0-.3149414.0419922-1.112793.2099609-1.7636719.6088867-2.3095703,1.9736328-4.2832031,3.9472656-5.1650391.3569336-.1469727.8398438-.2519531,1.2387695-.2519531.5458984,0,1.1757812.3149414,1.1757812.8188477,0,.2099609-.0209961.4829102-.2939453.8818359-.902832,1.3227539-2.015625,1.4907227-3.4013672,1.5537109-.5878906.0209961-.8818359.230957-1.1337891.7138672-.4199219.8398438-.6508789,1.784668-.6928711,3.0864258l-.0209961.3989258c0,1.4697266,1.2177734,1.9316406,2.5825195,1.9316406.5039062,0,1.0078125-.0839844,1.4907227-.230957,2.015625-.5878906,4.4301758-1.574707,6.8447266-2.8554688,2.0366211-1.0917969,4.0732422-2.3935547,5.7739258-3.5063477.1679688-.1049805.2519531-.2099609.5249023-.2099609.1049805.0419922.1259766.0839844.1469727.1889648,0,.0629883,0,.1469727-.1469727.2939453-.1469727.1259766-.3149414.2519531-.5039062.3779297-1.4487305,1.0288086-3.4013672,2.3305664-5.5009766,3.4433594-2.3725586,1.2807617-4.9130859,2.3095703-6.8237305,2.9394531-.671875.2099609-1.34375.3779297-2.0576172.4199219h-.2939453Zm2.5825195-9.1542969l.0419922-.1049805c0-.1259766-.1889648-.1469727-.230957-.1469727-1.0078125.0839844-2.0996094.8608398-2.7084961,1.7426758h.230957c1.5327148,0,2.246582-.7768555,2.6665039-1.4907227Z"/>
      <path class="cls-1" d="m85.7416992,44.9526367c0-.671875.1889648-1.3017578.3569336-1.9526367l.1469727-.5878906c.0209961-.0629883.0419922-.1889648.1049805-.3569336-.2519531.1259766-.671875.5039062-.9868164.6928711-.3569336.2099609-.671875.4619141-1.0917969.5878906-.1469727.0419922-.2939453.0629883-.440918.0629883-.6088867,0-1.0498047-.3989258-1.0498047-1.0288086,0-.1049805,0-.1889648.0209961-.2939453.3149414-1.4277344,1.0288086-2.6665039,1.8476562-3.8422852.1049805-.1469727.2519531-.2519531.440918-.2519531.0629883,0,.1469727.0209961.2099609.0419922.230957.1049805.3149414.2939453.3149414.5039062,0,.0629883,0,.1469727-.0209961.2099609-.0839844.2939453-.230957.5668945-.3779297.8398438-.3359375.671875-.7138672,1.3227539-1.0288086,2.2885742.8608398-.4829102,1.4067383-.9658203,1.9736328-1.3857422.2939453-.2099609.5878906-.5458984.9658203-.5458984.1259766,0,.2729492.0419922.4199219.1469727.3359375.230957.4619141.5458984.4619141.8818359,0,.2099609-.0419922.4199219-.1049805.6298828-.1679688.5878906-.3779297,1.1757812-.5668945,1.784668-.1469727.5039062-.3149414,1.0078125-.3149414,1.5327148,0,.5039062.0839844.7348633.3779297.7348633.1259766,0,.2939453-.0629883.5039062-.1469727.9448242-.3989258,1.7216797-1.0288086,2.3935547-1.8056641,1.2597656-1.4697266,1.9316406-3.2124023,2.4145508-5.0390625.1259766-.3989258.2099609-.8188477.3779297-1.1967773.0839844-.2099609.2099609-.3149414.3779297-.3149414.1049805,0,.230957.0629883.3569336.1889648,1.8686523,1.8056641,5.144043,2.1835938,7.0126953,2.1835938.7138672,0,1.4067383-.0419922,2.1206055-.0839844.902832-.0419922,1.784668-.2939453,2.6455078-.6088867.1469727-.0629883.2939453-.1049805.3989258-.1049805h.0419922c.1049805.0209961.1889648.0629883.1889648.1889648,0,.1049805-.0209961.1679688-.1259766.2519531-.1679688.1469727-.4829102.2729492-.6508789.3359375-1.5117188.5878906-2.9394531.7558594-4.472168.7768555h-.3149414c-2.8974609,0-4.8920898-.5878906-6.949707-1.6166992-.2729492.8818359-.5039062,1.6796875-.7768555,2.456543-.6508789,1.8476562-1.7006836,3.4223633-3.2963867,4.5771484-.5458984.3779297-1.1337891.7138672-1.7636719.8818359-.2519531.0629883-.4829102.1049805-.671875.1049805-.9238281,0-1.4487305-.6298828-1.4697266-1.7216797Z"/>
      <path class="cls-1" d="m104.8100586,42.769043l-.0209961-.5668945c0-1.4067383.4619141-2.7084961,1.1337891-3.9262695.1469727-.2519531.3359375-.5039062.6298828-.5039062.0839844,0,.1889648.0209961.2939453.0839844.2519531.1469727.3359375.3359375.3359375.5249023,0,.1469727-.0419922.3149414-.1259766.4829102-.3359375.671875-.671875,1.3647461-.902832,2.0996094-.1679688.5249023-.2939453,1.0708008-.2939453,1.6376953l.0209961.3149414c.1049805,1.1757812.7558594,1.8056641,1.8686523,1.8056641h.2099609c.6298828-.0209961,1.2177734-.2099609,1.8266602-.4199219,1.5327148-.5458984,2.7924805-1.2807617,4.1992188-2.0996094,1.7636719-1.0498047,3.5063477-2.0996094,5.1860352-3.3173828.1679688-.1259766.2519531-.1679688.3989258-.1679688.0629883,0,.1679688.0209961.2099609.1049805l.0209961.1049805c0,.1049805-.0419922.1889648-.2939453.3779297-1.7216797,1.2177734-3.4433594,2.4145508-5.2490234,3.4643555-1.4277344.8188477-2.3305664,1.3647461-3.6953125,1.8896484-.7138672.2939453-1.4277344.5458984-2.1835938.671875-.2099609.0419922-.5039062.0629883-.6928711.0629883-1.5327148,0-2.7084961-1.0288086-2.8764648-2.6245117Zm3.4643555-7.4116211c-.3359375,0-.5458984-.230957-.5668945-.5458984v-.0419922c0-.3359375.230957-.5458984.5458984-.5878906h.0419922c.3569336,0,.5249023.2099609.5878906.5458984-.0209961.3779297-.2099609.6088867-.5668945.6298828h-.0419922Z"/>
      <path class="cls-1" d="m116.4863281,45.5195312c0-1.2387695,1.0708008-2.4775391,2.2045898-3.1494141.7768555-.4829102,1.5957031-.6508789,2.5825195-.9238281-.2519531-.3779297-.5249023-.5039062-.7978516-.7348633-.8608398-.7138672-1.1967773-1.4277344-1.1967773-2.0786133,0-.8188477.5458984-1.5957031,1.3857422-2.2675781.7138672-.5878906,1.112793-.7768555,2.015625-.8818359.8608398,0,1.4487305.5878906,1.4487305,1.4487305,0,.5039062-.2099609,1.1337891-.6298828,1.6376953-.1679688.1889648-.3569336.3359375-.5878906.3359375-.2519531,0-.5668945-.2099609-.5668945-.5249023,0-.4619141.4619141-.8818359.4619141-1.2807617,0-.1889648-.1469727-.3149414-.3149414-.3149414-.230957,0-.4619141.2099609-.671875.3359375-.6928711.440918-1.2387695.9868164-1.2387695,1.4907227,0,.7348633.8398438,1.0917969,2.2045898,2.6035156.2939453.0209961.5458984.0419922,1.0078125.0419922.230957,0,.5878906-.0209961.8398438-.0419922,3.2124023-.2939453,6.4458008-.7768555,9.847168-1.8896484.4199219-.1259766.7138672-.2729492,1.0078125-.3989258.230957-.1049805.3779297-.1889648.4829102-.2099609h.0419922c.1259766,0,.2729492.0839844.2729492.1889648,0,.1469727-.1259766.3149414-.5039062.5039062-.3989258.2099609-.6298828.2939453-1.0708008.4619141-3.4643555,1.2597656-6.8657227,1.8476562-10.8759766,2.1416016-.8188477.0629883-.8188477.0839844-.902832.8818359-.2519531,2.0366211-1.7216797,3.7163086-3.6953125,4.2202148-.2729492.0839844-.5668945.1259766-.8608398.1259766-1.1547852,0-1.8896484-.7348633-1.8896484-1.7216797Zm5.144043-3.0234375v-.230957c-1.2177734.1889648-2.2885742.5458984-3.1704102,1.34375-.6298828.5458984-.902832,1.0078125-.9658203,1.8056641,0,.4619141.2519531.671875.7558594.671875h.0629883c1.6586914,0,3.3173828-1.8056641,3.3173828-3.590332Z"/>
      <path class="cls-1" d="m139.1650391,49.0258789c-.0839844-.3569336-.1049805-.7138672-.1049805-1.0498047,0-.5249023.0629883-1.0288086.1679688-1.5537109.3359375-1.7636719,1.0498047-3.3803711,1.7006836-5.0390625.2939453-.7348633.7138672-1.4277344.7348633-2.3515625-.6088867.0419922-.9868164.3779297-1.34375.7138672-1.7216797,1.4907227-2.8974609,3.3803711-3.7792969,5.4589844l-.0629883.1889648c-.1049805.3359375-.1679688.7348633-.6298828.7348633-.5039062-.0209961-.671875-.440918-.7558594-.8608398-.0839844-.4619141-.1259766-.9448242-.1259766-1.4067383,0-.440918.0419922-.8608398.0629883-1.3017578.2099609-2.918457,1.0708008-5.7739258,1.9736328-8.6293945,2.4985352-7.8945312,6.949707-14.4663086,13.2485352-19.7993164,2.0576172-1.7426758,4.262207-3.2753906,6.7607422-4.3041992,1.0498047-.440918,2.1206055-.7348633,3.2333984-.7348633,1.9316406.1049805,2.9394531.7978516,2.9394531,2.6245117,0,.9868164-.2099609,1.6586914-.6088867,2.6245117-1.1337891,2.7714844-2.7924805,5.2070312-4.6401367,7.5375977-4.4511719,5.5849609-9.8051758,10.1621094-15.7890625,14.0253906-1.5957031,1.0078125-3.128418,2.0996094-4.7871094,2.9814453-.2939453.1469727-.5458984.2939453-.6298828.6508789-.2939453,1.1757812-.4619141,2.2675781-.5878906,3.6533203.4829102-.3149414.5668945-.671875.7558594-.9658203.7768555-1.3227539,1.7006836-2.5405273,2.918457-3.5063477.4829102-.3989258,1.0078125-.7558594,1.6166992-.9238281.1469727-.0419922.2939453-.0629883.440918-.0629883.7138672,0,1.1757812.5039062,1.1757812,1.3017578,0,.5878906-.1889648,1.0917969-.3779297,1.5957031-.5039062,1.3017578-1.0288086,2.6035156-1.5117188,3.9052734-.3989258,1.112793-.7558594,2.246582-.7558594,3.4433594,0,.9238281.230957,1.3227539.8398438,1.3227539.1889648,0,.4199219-.0209961.6928711-.1049805,1.1967773-.3359375,2.2675781-.902832,3.3173828-1.5537109,3.9892578-2.4775391,7.3066406-5.1860352,10.8549805-8.2724609l.671875-.5878906c.0629883-.0629883.1259766-.0629883.1889648-.0629883s.1259766.0209961.1679688.0629883c.0839844.0419922.0839844.1469727.0839844.1889648s-.0209961.1049805-.0629883.1469727c-.1259766.1679688-.2729492.3149414-.4199219.4619141-4.0732422,3.800293-8.0834961,6.949707-12.7866211,9.8891602-.7348633.4829102-1.5117188.8818359-2.3725586,1.0708008-.2099609.0419922-.3989258.0629883-.5878906.0629883-.9448242,0-1.574707-.5458984-1.8266602-1.574707Zm-.7348633-11.5268555c2.5615234-1.6796875,5.1020508-3.3803711,7.6005859-5.1650391,5.3540039-3.8842773,9.9311523-8.4824219,13.5634766-14.0253906,1.0078125-1.5117188,1.8476562-3.1074219,2.3515625-4.8710938.1259766-.4829102.230957-.9448242.230957-1.4487305,0-.8188477-.2099609-1.4277344-1.112793-1.6166992-.230957-.0419922-.440918-.0839844-.671875-.0839844-.5039062,0-.9868164.1259766-1.4907227.2519531-1.5537109.4199219-2.9604492,1.1757812-4.3251953,2.0576172-4.1782227,2.6875-7.5795898,6.1938477-10.4770508,10.2041016-3.2124023,4.472168-5.2490234,9.4902344-6.8447266,14.6972656-.0209961.0839844-.0419922.1679688-.0419922.2729492s.0209961.1889648.0839844.3149414c.4619141-.0839844.7768555-.3779297,1.1337891-.5878906Z"/>
      <path class="cls-1" d="m174.5927734,47.5561523c-.230957-.5878906-.2939453-1.1967773-.2939453-1.8056641.1049805-2.5825195.5039062-4.262207,1.2597656-6.9077148.7558594-2.7294922,1.6586914-5.3959961,2.7504883-7.9995117.1259766-.2519531.2939453-.4829102.2939453-.8188477l-.0419922-.2519531c-3.8632812.4619141-2.8344727.2939453-6.5927734.8818359-.1469727.0209961-.2939453.0629883-.440918.0629883-.3359375,0-.6088867-.1259766-.6928711-.4829102l-.0209961-.1679688c0-.1889648.0629883-.3569336.2519531-.4829102.3989258-.2729492.8398438-.5878906,1.2807617-.5878906.0839844,0,.1469727,0,.230957.0209961.3149414.0839844.6298828.1049805.9238281.1049805.7348633,0,1.4487305-.1679688,2.1835938-.2099609.902832-.0419922,1.8056641-.1679688,2.7084961-.2099609.6508789-.0419922,1.0288086-.3149414,1.34375-.9448242,1.34375-2.8344727,2.8974609-5.5429688,4.8710938-8.0205078.3989258-.4829102.7978516-.9658203,1.3017578-1.34375.1889648-.1469727.3989258-.2729492.6298828-.2729492.1469727,0,.2729492.0419922.4199219.1469727.230957.1679688.3359375.3779297.3359375.6298828,0,.1259766-.0419922.2729492-.1049805.3989258-.2729492.671875-.4199219,1.5117188-1.34375,1.5117188l-.230957-.0209961c-.1889648,0-.2729492.1679688-.3779297.3149414-1.6586914,2.246582-3.128418,4.5981445-4.262207,7.159668.0419922.2099609.1679688.2099609.3359375.2099609.1259766,0,.2519531-.0209961.3779297-.0419922,1.7006836-.1259766,3.4013672-.1679688,5.1230469-.1679688l3.5483398.0419922.3779297-.0209961c.2519531,0,.5039062.0629883.5039062.4199219,0,.3989258-.230957.440918-.5668945.440918-3.4853516,0-5.815918.1259766-9.5112305.3989258-.6298828.0419922-.9868164.230957-1.2597656.8398438-1.8686523,4.3251953-3.4013672,8.7553711-4.3041992,13.3955078-.1469727.7558594-.2519531,1.4907227-.2519531,2.2675781,0,1.4277344.3989258,2.0996094,1.2387695,2.0996094.3149414,0,.7138672-.1049805,1.1967773-.2939453.9448242-.3569336,1.8266602-.8608398,2.6665039-1.4277344,3.0444336-2.0786133,5.5429688-4.1152344,8.3564453-7.159668l.230957-.2519531c.1889648-.1889648.2099609-.2099609.2729492-.2519531s.1049805-.0419922.1679688-.0419922c.0839844,0,.1679688.0419922.2099609.1679688v.0419922c0,.1049805-.0839844.230957-.1679688.3359375-2.7924805,3.359375-6.3618164,6.2988281-9.8051758,8.5454102-.7138672.4619141-1.4487305.8818359-2.246582,1.1547852-.3149414.1049805-.7138672.1469727-.9868164.1469727-.8818359,0-1.5327148-.5249023-1.8896484-1.5537109Z"/>
      <path class="cls-1" d="m187.8857422,42.7900391c-.0419922-.1889648-.0839844-.3779297-.0839844-.5668945.1889648-1.6166992.7138672-2.8134766,1.7426758-3.9892578.1679688-.1889648.3569336-.4199219.6298828-.4199219.3989258.1049805.5458984.2099609.5458984.5458984l-.0629883.3779297c0,.3149414.2729492.4829102.5039062.5878906.3149414.1469727.6508789.2729492.9868164.3359375,1.4907227.2519531,2.9604492.3989258,4.4301758.3989258,1.8056641,0,3.5693359-.2099609,5.3540039-.6508789.5458984-.1469727,1.0498047-.3359375,1.574707-.5458984.1469727-.0629883.2939453-.1469727.5039062-.1469727.0629883,0,.1889648.1049805.1889648.230957v.0209961c-.0209961.1049805-.1679688.2519531-.4199219.3779297-.3779297.1889648-.671875.3149414-1.1967773.4829102-2.0786133.6298828-4.0942383.8608398-6.1938477.8608398-.9868164,0-1.9526367-.0629883-2.9394531-.1469727-.6298828-.0629883-1.2387695-.1259766-1.8476562-.2519531l-.2099609-.0209961c-.2729492,0-.3779297.0419922-.440918.3569336-.1259766.6088867-.3569336,1.1757812-.6928711,1.7216797-.2099609.3569336-.440918.6928711-.7978516.9448242-.230957.1469727-.440918.230957-.671875.230957-.3989258,0-.7348633-.2519531-.902832-.7348633Zm2.2885742-2.8764648v-.2519531c-.671875.6508789-.9868164,1.4277344-1.0498047,2.5615234.7558594-.7558594,1.0498047-1.4697266,1.0498047-2.3095703Z"/>
      <path class="cls-1" d="m225.9785156,49.0258789c-.0839844-.3569336-.1049805-.7138672-.1049805-1.0498047,0-.5249023.0629883-1.0288086.1679688-1.5537109.3359375-1.7636719,1.0498047-3.3803711,1.7006836-5.0390625.2939453-.7348633.7138672-1.4277344.7348633-2.3515625-.6088867.0419922-.9868164.3779297-1.34375.7138672-1.7216797,1.4907227-2.8974609,3.3803711-3.7792969,5.4589844l-.0629883.1889648c-.1049805.3359375-.1679688.7348633-.6298828.7348633-.5039062-.0209961-.671875-.440918-.7558594-.8608398-.0839844-.4619141-.1259766-.9448242-.1259766-1.4067383,0-.440918.0419922-.8608398.0629883-1.3017578.2099609-2.918457,1.0708008-5.7739258,1.9736328-8.6293945,2.4985352-7.8945312,6.949707-14.4663086,13.2485352-19.7993164,2.0576172-1.7426758,4.262207-3.2753906,6.7607422-4.3041992,1.0498047-.440918,2.1206055-.7348633,3.2333984-.7348633,1.9316406.1049805,2.9394531.7978516,2.9394531,2.6245117,0,.9868164-.2099609,1.6586914-.6088867,2.6245117-1.1337891,2.7714844-2.7924805,5.2070312-4.6401367,7.5375977-4.4511719,5.5849609-9.8051758,10.1621094-15.7890625,14.0253906-1.5957031,1.0078125-3.128418,2.0996094-4.7871094,2.9814453-.2939453.1469727-.5458984.2939453-.6298828.6508789-.2939453,1.1757812-.4619141,2.2675781-.5878906,3.6533203.4829102-.3149414.5668945-.671875.7558594-.9658203.7768555-1.3227539,1.7006836-2.5405273,2.918457-3.5063477.4829102-.3989258,1.0078125-.7558594,1.6166992-.9238281.1469727-.0419922.2939453-.0629883.440918-.0629883.7138672,0,1.1757812.5039062,1.1757812,1.3017578,0,.5878906-.1889648,1.0917969-.3779297,1.5957031-.5039062,1.3017578-1.0288086,2.6035156-1.5117188,3.9052734-.3989258,1.112793-.7558594,2.246582-.7558594,3.4433594,0,.9238281.230957,1.3227539.8398438,1.3227539.1889648,0,.4199219-.0209961.6928711-.1049805,1.1967773-.3359375,2.2675781-.902832,3.3173828-1.5537109,3.9892578-2.4775391,7.3066406-5.1860352,10.8549805-8.2724609l.671875-.5878906c.0629883-.0629883.1259766-.0629883.1889648-.0629883s.1259766.0209961.1679688.0629883c.0839844.0419922.0839844.1469727.0839844.1889648s-.0209961.1049805-.0629883.1469727c-.1259766.1679688-.2729492.3149414-.4199219.4619141-4.0732422,3.800293-8.0834961,6.949707-12.7866211,9.8891602-.7348633.4829102-1.5117188.8818359-2.3725586,1.0708008-.2099609.0419922-.3989258.0629883-.5878906.0629883-.9448242,0-1.574707-.5458984-1.8266602-1.574707Zm-.7348633-11.5268555c2.5615234-1.6796875,5.1020508-3.3803711,7.6005859-5.1650391,5.3540039-3.8842773,9.9311523-8.4824219,13.5634766-14.0253906,1.0078125-1.5117188,1.8476562-3.1074219,2.3515625-4.8710938.1259766-.4829102.230957-.9448242.230957-1.4487305,0-.8188477-.2099609-1.4277344-1.112793-1.6166992-.230957-.0419922-.440918-.0839844-.671875-.0839844-.5039062,0-.9868164.1259766-1.4907227.2519531-1.5537109.4199219-2.9604492,1.1757812-4.3251953,2.0576172-4.1782227,2.6875-7.5795898,6.1938477-10.4770508,10.2041016-3.2124023,4.472168-5.2490234,9.4902344-6.8447266,14.6972656-.0209961.0839844-.0419922.1679688-.0419922.2729492s.0209961.1889648.0839844.3149414c.4619141-.0839844.7768555-.3779297,1.1337891-.5878906Z"/>
      <path class="cls-1" d="m245.1938477,43c0-.7348633.2939453-1.8266602.4619141-2.456543-.0419922.0419922-.1049805.1259766-.2729492.2729492l-1.3227539,1.1547852c-.2519531.230957-.5249023.4619141-.8188477.6508789-.230957.1469727-.4619141.2519531-.6928711.2519531-.1679688,0-.3149414-.0419922-.4619141-.1469727-.2519531-.2099609-.3359375-.4619141-.3359375-.7348633l.0419922-.4199219c.0209961-.0209961.0209961-.0629883.0209961-.1049805.9448242-2.2255859,2.456543-3.9472656,4.6401367-4.9970703.2099609-.1049805.4829102-.1259766.7138672-.1259766.6298828,0,.9658203.3149414.9658203.8608398l-.0209961.2099609c-.0839844.6928711-.3989258,1.2597656-.7978516,1.8056641-.7768555,1.0288086-1.1967773,2.7924805-1.2597656,3.4433594-.0209961.1469727-.0209961.2939453-.0209961.440918,0,1.0288086.5668945,1.574707,1.6376953,1.574707l.3149414-.0209961c1.3017578-.1049805,3.4643555-1.0498047,4.6191406-1.6166992,2.3935547-1.1547852,4.5771484-2.4775391,6.7607422-3.9892578.3779297-.2729492.4829102-.3359375.6088867-.3359375l.1469727.0209961c.0839844.0629883.1049805.1259766.1049805.1679688,0,.1679688-.1469727.2939453-.3149414.4199219-2.4775391,1.8686523-4.472168,3.0864258-6.8867188,4.3461914-1.1547852.5878906-3.3173828,1.5327148-4.6191406,1.7216797-.230957.0209961-.4829102.0629883-.7138672.0629883-1.574707,0-2.4775391-.902832-2.4985352-2.456543Zm.7348633-3.6953125c.5878906-.3569336.7348633-.8398438.8398438-1.4697266-1.1757812.3569336-2.6245117,1.7636719-3.2124023,3.1494141.8608398-.6298828,1.5957031-1.2177734,2.3725586-1.6796875Z"/>
      <path class="cls-1" d="m259.1171875,44.1337891c-.1049805-.5458984-.1469727-1.0917969-.1469727-1.6586914,0-.8608398.1259766-1.7216797.3359375-2.5825195.1469727-.5039062.3149414-1.0078125.5039062-1.4907227.0839844-.2099609.230957-.3569336.4829102-.3569336.3359375,0,.5039062.230957.5458984.5039062l.0419922.3359375c0,.3359375-.1049805.671875-.1679688,1.0078125-.1679688.8188477-.3569336,1.6376953-.3569336,2.4985352,0,.3149414.0629883.8188477.1259766,1.1337891.2099609-.0839844.5249023-.671875.6928711-.9658203.7768555-1.4067383,1.3647461-2.918457,1.9736328-4.3881836.1679688-.3779297.3359375-.7558594.5668945-1.112793.1259766-.1889648.2939453-.3149414.4619141-.3149414.1469727,0,.2729492.0839844.3989258.230957,1.6796875,2.015625,4.1572266,2.6035156,6.3408203,2.6035156,1.0498047,0,1.9526367-.0209961,3.128418-.2519531.5878906-.1049805,1.1757812-.2939453,1.7636719-.5039062.1259766-.0419922.2519531-.1049805.3779297-.1049805.0629883,0,.1889648.0209961.230957.1679688v.0629883c0,.1679688-.230957.2939453-.3989258.3779297-.5039062.230957-.9868164.3989258-1.784668.5878906-.9448242.2099609-2.0576172.3569336-3.1494141.3569336-2.6455078,0-5.2280273-.5458984-6.949707-2.3935547-.2099609.2729492-.3149414.6088867-.4829102,1.0078125-.5458984,1.34375-1.0708008,2.7084961-1.6376953,4.0522461-.230957.5878906-.5039062,1.1547852-.8818359,1.6586914-.2519531.3359375-.5668945.6088867-.9868164.6088867-.7138672-.1049805-.8818359-.3989258-1.0288086-1.0708008Z"/>
      <path class="cls-1" d="m277.5126953,46.3803711c-1.8056641,0-3.0654297-1.1337891-3.0654297-2.7714844v-.2939453c0-.3149414.0419922-1.112793.2099609-1.7636719.6088867-2.3095703,1.9736328-4.2832031,3.9472656-5.1650391.3569336-.1469727.8398438-.2519531,1.2387695-.2519531.5458984,0,1.1757812.3149414,1.1757812.8188477,0,.2099609-.0209961.4829102-.2939453.8818359-.902832,1.3227539-2.015625,1.4907227-3.4013672,1.5537109-.5878906.0209961-.8818359.230957-1.1337891.7138672-.4199219.8398438-.6508789,1.784668-.6928711,3.0864258l-.0209961.3989258c0,1.4697266,1.2177734,1.9316406,2.5825195,1.9316406.5039062,0,1.0078125-.0839844,1.4907227-.230957,2.015625-.5878906,4.4301758-1.574707,6.8447266-2.8554688,2.0366211-1.0917969,4.0732422-2.3935547,5.7739258-3.5063477.1679688-.1049805.2519531-.2099609.5249023-.2099609.1049805.0419922.1259766.0839844.1469727.1889648,0,.0629883,0,.1469727-.1469727.2939453-.1469727.1259766-.3149414.2519531-.5039062.3779297-1.4487305,1.0288086-3.4013672,2.3305664-5.5009766,3.4433594-2.3725586,1.2807617-4.9130859,2.3095703-6.8237305,2.9394531-.671875.2099609-1.34375.3779297-2.0576172.4199219h-.2939453Zm2.5825195-9.1542969l.0419922-.1049805c0-.1259766-.1889648-.1469727-.230957-.1469727-1.0078125.0839844-2.0996094.8608398-2.7084961,1.7426758h.230957c1.5327148,0,2.246582-.7768555,2.6665039-1.4907227Z"/>
      <path class="cls-1" d="m312.8974609,43c0-.7348633.2939453-1.8266602.4619141-2.456543-.0419922.0419922-.1049805.1259766-.2729492.2729492l-1.3227539,1.1547852c-.2519531.230957-.5249023.4619141-.8188477.6508789-.230957.1469727-.4619141.2519531-.6928711.2519531-.1679688,0-.3149414-.0419922-.4619141-.1469727-.2519531-.2099609-.3359375-.4619141-.3359375-.7348633l.0419922-.4199219c.0209961-.0209961.0209961-.0629883.0209961-.1049805.9448242-2.2255859,2.456543-3.9472656,4.6401367-4.9970703.2099609-.1049805.4829102-.1259766.7138672-.1259766.6298828,0,.9658203.3149414.9658203.8608398l-.0209961.2099609c-.0839844.6928711-.3989258,1.2597656-.7978516,1.8056641-.7768555,1.0288086-1.1967773,2.7924805-1.2597656,3.4433594-.0209961.1469727-.0209961.2939453-.0209961.440918,0,1.0288086.5668945,1.574707,1.6376953,1.574707l.3149414-.0209961c1.3017578-.1049805,3.4643555-1.0498047,4.6191406-1.6166992,2.3935547-1.1547852,4.5771484-2.4775391,6.7607422-3.9892578.3779297-.2729492.4829102-.3359375.6088867-.3359375l.1469727.0209961c.0839844.0629883.1049805.1259766.1049805.1679688,0,.1679688-.1469727.2939453-.3149414.4199219-2.4775391,1.8686523-4.472168,3.0864258-6.8867188,4.3461914-1.1547852.5878906-3.3173828,1.5327148-4.6191406,1.7216797-.230957.0209961-.4829102.0629883-.7138672.0629883-1.574707,0-2.4775391-.902832-2.4985352-2.456543Zm.7348633-3.6953125c.5878906-.3569336.7348633-.8398438.8398438-1.4697266-1.1757812.3569336-2.6245117,1.7636719-3.2124023,3.1494141.8608398-.6298828,1.5957031-1.2177734,2.3725586-1.6796875Z"/>
    </g>
    <g>
      <path class="cls-1" d="m19.0854492,59.5449219c-.8188477-1.3227539-1.34375-2.7294922-1.7216797-4.2412109-.8398438-3.3383789-1.1967773-6.7397461-1.1967773-10.1621094,0-.8188477.0209961-1.6166992.0629883-2.4355469.1049805-2.6455078.440918-5.2700195.7768555-7.9155273.0419922-.230957.0839844-.4829102.0839844-.7768555,0-.1469727,0-.3149414-.0419922-.5039062-.6088867.440918-.9658203,1.0078125-1.3647461,1.4907227-1.9946289,2.5405273-3.9682617,5.1230469-5.9838867,7.6425781-1.6376953,2.0786133-3.3173828,4.0942383-5.2490234,5.8579102-.5249023.4829102-1.0917969.9448242-1.7216797,1.2597656-.3779297.1679688-.7348633.2729492-1.0498047.2729492-.8818359,0-1.4907227-.671875-1.6376953-1.8686523-.0209961-.2099609-.0419922-.4199219-.0419922-.6298828,0-.4199219.0419922-.8188477.1049805-1.2387695.4619141-3.4013672,1.4067383-6.6767578,2.3935547-9.9521484,2.4775391-8.0625,5.5429688-15.8730469,9.6582031-23.1796875,1.0288086-1.8266602,2.1206055-3.5483398,3.1704102-5.3330078.1049805-.1469727.1889648-.2939453.3149414-.440918.1679688-.1889648.3569336-.2939453.5668945-.2939453.1259766,0,.2519531.0419922.3779297.1259766.2729492.1469727.3989258.3779297.3989258.6508789l-.0419922.2729492c-.1049805.5039062-.4199219.9238281-.671875,1.3647461-1.5117188,2.4775391-3.0024414,4.9760742-4.3041992,7.5795898-4.1992188,8.3144531-7.3486328,17.0698242-9.5952148,26.1821289-.2729492,1.0708008-.4199219,2.1835938-.6088867,3.2543945-.0629883.3779297-.0629883.7978516-.0629883,1.1967773,0,.2729492.1049805.3779297.2519531.3779297.0839844,0,.1679688-.0209961.2519531-.0839844.3779297-.230957.7558594-.5039062,1.0917969-.8188477,1.6796875-1.5117188,3.1704102-3.2124023,4.5981445-4.9760742,2.2675781-2.7924805,4.472168-5.6479492,6.71875-8.4404297.4829102-.6088867.9868164-1.1547852,1.4907227-1.7216797.2729492-.2939453.5668945-.5458984.902832-.7348633.230957-.1049805.440918-.1679688.6508789-.1679688.4619141,0,.8188477.3149414,1.0078125.902832.1049805.3359375.1259766.6508789.1259766.9868164,0,.3569336-.0419922.7348633-.0839844,1.112793-.1889648,1.9106445-.440918,3.7792969-.6298828,5.6899414-.1679688,1.7426758-.2519531,3.4853516-.2519531,5.2070312,0,3.3383789.3359375,6.6347656,1.1967773,9.9101562.2939453,1.1547852.671875,2.2675781,1.2597656,3.2543945.1889648.3149414.3779297.6298828.5878906.9238281.7768555.9868164,1.6166992,1.4697266,2.5825195,1.4697266.5249023,0,1.0917969-.1469727,1.7006836-.4619141.902832-.440918,1.6586914-1.0708008,2.3725586-1.784668,1.6166992-1.6586914,2.918457-3.5483398,4.1362305-5.5639648,3.9892578-6.5087891,6.4248047-13.668457,7.6425781-21.3110352.7348633-4.6821289,1.2177734-9.3642578,1.2177734-14.109375l-.0209961-1.3857422c-.0629883-2.8974609-.2939453-5.815918-.9658203-8.6503906-.3569336-1.4067383-.8608398-2.7294922-1.5537109-3.9682617-.9448242-1.6586914-2.1625977-2.4985352-3.6953125-2.4985352-.5668945,0-1.1757812.1259766-1.8266602.3359375l-.9658203.3989258c-.1259766.0419922-.2519531.1049805-.3569336.1049805-.1259766,0-.230957-.0629883-.2939453-.2099609-.0419922-.0629883-.0629883-.1259766-.0629883-.1889648,0-.1889648.1889648-.3149414.3569336-.3989258,1.112793-.5878906,2.2045898-.9238281,3.2543945-.9238281,1.5117188,0,2.918457.7348633,4.1362305,2.5195312.8608398,1.2597656,1.4277344,2.7084961,1.8266602,4.1992188.6508789,2.5405273,1.0078125,5.1230469,1.112793,7.7265625.0419922,1.2387695.0629883,2.456543.0629883,3.6953125,0,8.4404297-1.1547852,16.7338867-3.7583008,24.7963867-1.7006836,5.3120117-4.1992188,10.2041016-7.4326172,14.6552734-.7558594,1.0078125-1.574707,1.9736328-2.5195312,2.7924805-.3779297.3359375-.7558594.6298828-1.1547852.9238281-1.0917969.7348633-2.1835938,1.0917969-3.2124023,1.0917969-1.6796875,0-3.2124023-.9658203-4.3671875-2.8554688Z"/>
      <path class="cls-1" d="m50.6088867,46.3803711c-1.8056641,0-3.0654297-1.1337891-3.0654297-2.7714844v-.2939453c0-.3149414.0419922-1.112793.2099609-1.7636719.6088867-2.3095703,1.9736328-4.2832031,3.9472656-5.1650391.3569336-.1469727.8398438-.2519531,1.2387695-.2519531.5458984,0,1.1757812.3149414,1.1757812.8188477,0,.2099609-.0209961.4829102-.2939453.8818359-.902832,1.3227539-2.015625,1.4907227-3.4013672,1.5537109-.5878906.0209961-.8818359.230957-1.1337891.7138672-.4199219.8398438-.6508789,1.784668-.6928711,3.0864258l-.0209961.3989258c0,1.4697266,1.2177734,1.9316406,2.5825195,1.9316406.5039062,0,1.0078125-.0839844,1.4907227-.230957,2.015625-.5878906,4.4301758-1.574707,6.8447266-2.8554688,2.0366211-1.0917969,4.0732422-2.3935547,5.7739258-3.5063477.1679688-.1049805.2519531-.2099609.5249023-.2099609.1049805.0419922.1259766.0839844.1469727.1889648,0,.0629883,0,.1469727-.1469727.2939453-.1469727.1259766-.3149414.2519531-.5039062.3779297-1.4487305,1.0288086-3.4013672,2.3305664-5.5009766,3.4433594-2.3725586,1.2807617-4.9130859,2.3095703-6.8237305,2.9394531-.671875.2099609-1.34375.3779297-2.0576172.4199219h-.2939453Zm2.5825195-9.1542969l.0419922-.1049805c0-.1259766-.1889648-.1469727-.230957-.1469727-1.0078125.0839844-2.0996094.8608398-2.7084961,1.7426758h.230957c1.5327148,0,2.246582-.7768555,2.6665039-1.4907227Z"/>
      <path class="cls-1" d="m85.7416992,44.9526367c0-.671875.1889648-1.3017578.3569336-1.9526367l.1469727-.5878906c.0209961-.0629883.0419922-.1889648.1049805-.3569336-.2519531.1259766-.671875.5039062-.9868164.6928711-.3569336.2099609-.671875.4619141-1.0917969.5878906-.1469727.0419922-.2939453.0629883-.440918.0629883-.6088867,0-1.0498047-.3989258-1.0498047-1.0288086,0-.1049805,0-.1889648.0209961-.2939453.3149414-1.4277344,1.0288086-2.6665039,1.8476562-3.8422852.1049805-.1469727.2519531-.2519531.440918-.2519531.0629883,0,.1469727.0209961.2099609.0419922.230957.1049805.3149414.2939453.3149414.5039062,0,.0629883,0,.1469727-.0209961.2099609-.0839844.2939453-.230957.5668945-.3779297.8398438-.3359375.671875-.7138672,1.3227539-1.0288086,2.2885742.8608398-.4829102,1.4067383-.9658203,1.9736328-1.3857422.2939453-.2099609.5878906-.5458984.9658203-.5458984.1259766,0,.2729492.0419922.4199219.1469727.3359375.230957.4619141.5458984.4619141.8818359,0,.2099609-.0419922.4199219-.1049805.6298828-.1679688.5878906-.3779297,1.1757812-.5668945,1.784668-.1469727.5039062-.3149414,1.0078125-.3149414,1.5327148,0,.5039062.0839844.7348633.3779297.7348633.1259766,0,.2939453-.0629883.5039062-.1469727.9448242-.3989258,1.7216797-1.0288086,2.3935547-1.8056641,1.2597656-1.4697266,1.9316406-3.2124023,2.4145508-5.0390625.1259766-.3989258.2099609-.8188477.3779297-1.1967773.0839844-.2099609.2099609-.3149414.3779297-.3149414.1049805,0,.230957.0629883.3569336.1889648,1.8686523,1.8056641,5.144043,2.1835938,7.0126953,2.1835938.7138672,0,1.4067383-.0419922,2.1206055-.0839844.902832-.0419922,1.784668-.2939453,2.6455078-.6088867.1469727-.0629883.2939453-.1049805.3989258-.1049805h.0419922c.1049805.0209961.1889648.0629883.1889648.1889648,0,.1049805-.0209961.1679688-.1259766.2519531-.1679688.1469727-.4829102.2729492-.6508789.3359375-1.5117188.5878906-2.9394531.7558594-4.472168.7768555h-.3149414c-2.8974609,0-4.8920898-.5878906-6.949707-1.6166992-.2729492.8818359-.5039062,1.6796875-.7768555,2.456543-.6508789,1.8476562-1.7006836,3.4223633-3.2963867,4.5771484-.5458984.3779297-1.1337891.7138672-1.7636719.8818359-.2519531.0629883-.4829102.1049805-.671875.1049805-.9238281,0-1.4487305-.6298828-1.4697266-1.7216797Z"/>
      <path class="cls-1" d="m104.8100586,42.769043l-.0209961-.5668945c0-1.4067383.4619141-2.7084961,1.1337891-3.9262695.1469727-.2519531.3359375-.5039062.6298828-.5039062.0839844,0,.1889648.0209961.2939453.0839844.2519531.1469727.3359375.3359375.3359375.5249023,0,.1469727-.0419922.3149414-.1259766.4829102-.3359375.671875-.671875,1.3647461-.902832,2.0996094-.1679688.5249023-.2939453,1.0708008-.2939453,1.6376953l.0209961.3149414c.1049805,1.1757812.7558594,1.8056641,1.8686523,1.8056641h.2099609c.6298828-.0209961,1.2177734-.2099609,1.8266602-.4199219,1.5327148-.5458984,2.7924805-1.2807617,4.1992188-2.0996094,1.7636719-1.0498047,3.5063477-2.0996094,5.1860352-3.3173828.1679688-.1259766.2519531-.1679688.3989258-.1679688.0629883,0,.1679688.0209961.2099609.1049805l.0209961.1049805c0,.1049805-.0419922.1889648-.2939453.3779297-1.7216797,1.2177734-3.4433594,2.4145508-5.2490234,3.4643555-1.4277344.8188477-2.3305664,1.3647461-3.6953125,1.8896484-.7138672.2939453-1.4277344.5458984-2.1835938.671875-.2099609.0419922-.5039062.0629883-.6928711.0629883-1.5327148,0-2.7084961-1.0288086-2.8764648-2.6245117Zm3.4643555-7.4116211c-.3359375,0-.5458984-.230957-.5668945-.5458984v-.0419922c0-.3359375.230957-.5458984.5458984-.5878906h.0419922c.3569336,0,.5249023.2099609.5878906.5458984-.0209961.3779297-.2099609.6088867-.5668945.6298828h-.0419922Z"/>
      <path class="cls-1" d="m116.4863281,45.5195312c0-1.2387695,1.0708008-2.4775391,2.2045898-3.1494141.7768555-.4829102,1.5957031-.6508789,2.5825195-.9238281-.2519531-.3779297-.5249023-.5039062-.7978516-.7348633-.8608398-.7138672-1.1967773-1.4277344-1.1967773-2.0786133,0-.8188477.5458984-1.5957031,1.3857422-2.2675781.7138672-.5878906,1.112793-.7768555,2.015625-.8818359.8608398,0,1.4487305.5878906,1.4487305,1.4487305,0,.5039062-.2099609,1.1337891-.6298828,1.6376953-.1679688.1889648-.3569336.3359375-.5878906.3359375-.2519531,0-.5668945-.2099609-.5668945-.5249023,0-.4619141.4619141-.8818359.4619141-1.2807617,0-.1889648-.1469727-.3149414-.3149414-.3149414-.230957,0-.4619141.2099609-.671875.3359375-.6928711.440918-1.2387695.9868164-1.2387695,1.4907227,0,.7348633.8398438,1.0917969,2.2045898,2.6035156.2939453.0209961.5458984.0419922,1.0078125.0419922.230957,0,.5878906-.0209961.8398438-.0419922,3.2124023-.2939453,6.4458008-.7768555,9.847168-1.8896484.4199219-.1259766.7138672-.2729492,1.0078125-.3989258.230957-.1049805.3779297-.1889648.4829102-.2099609h.0419922c.1259766,0,.2729492.0839844.2729492.1889648,0,.1469727-.1259766.3149414-.5039062.5039062-.3989258.2099609-.6298828.2939453-1.0708008.4619141-3.4643555,1.2597656-6.8657227,1.8476562-10.8759766,2.1416016-.8188477.0629883-.8188477.0839844-.902832.8818359-.2519531,2.0366211-1.7216797,3.7163086-3.6953125,4.2202148-.2729492.0839844-.5668945.1259766-.8608398.1259766-1.1547852,0-1.8896484-.7348633-1.8896484-1.7216797Zm5.144043-3.0234375v-.230957c-1.2177734.1889648-2.2885742.5458984-3.1704102,1.34375-.6298828.5458984-.902832,1.0078125-.9658203,1.8056641,0,.4619141.2519531.671875.7558594.671875h.0629883c1.6586914,0,3.3173828-1.8056641,3.3173828-3.590332Z"/>
      <path class="cls-1" d="m139.1650391,49.0258789c-.0839844-.3569336-.1049805-.7138672-.1049805-1.0498047,0-.5249023.0629883-1.0288086.1679688-1.5537109.3359375-1.7636719,1.0498047-3.3803711,1.7006836-5.0390625.2939453-.7348633.7138672-1.4277344.7348633-2.3515625-.6088867.0419922-.9868164.3779297-1.34375.7138672-1.7216797,1.4907227-2.8974609,3.3803711-3.7792969,5.4589844l-.0629883.1889648c-.1049805.3359375-.1679688.7348633-.6298828.7348633-.5039062-.0209961-.671875-.440918-.7558594-.8608398-.0839844-.4619141-.1259766-.9448242-.1259766-1.4067383,0-.440918.0419922-.8608398.0629883-1.3017578.2099609-2.918457,1.0708008-5.7739258,1.9736328-8.6293945,2.4985352-7.8945312,6.949707-14.4663086,13.2485352-19.7993164,2.0576172-1.7426758,4.262207-3.2753906,6.7607422-4.3041992,1.0498047-.440918,2.1206055-.7348633,3.2333984-.7348633,1.9316406.1049805,2.9394531.7978516,2.9394531,2.6245117,0,.9868164-.2099609,1.6586914-.6088867,2.6245117-1.1337891,2.7714844-2.7924805,5.2070312-4.6401367,7.5375977-4.4511719,5.5849609-9.8051758,10.1621094-15.7890625,14.0253906-1.5957031,1.0078125-3.128418,2.0996094-4.7871094,2.9814453-.2939453.1469727-.5458984.2939453-.6298828.6508789-.2939453,1.1757812-.4619141,2.2675781-.5878906,3.6533203.4829102-.3149414.5668945-.671875.7558594-.9658203.7768555-1.3227539,1.7006836-2.5405273,2.918457-3.5063477.4829102-.3989258,1.0078125-.7558594,1.6166992-.9238281.1469727-.0419922.2939453-.0629883.440918-.0629883.7138672,0,1.1757812.5039062,1.1757812,1.3017578,0,.5878906-.1889648,1.0917969-.3779297,1.5957031-.5039062,1.3017578-1.0288086,2.6035156-1.5117188,3.9052734-.3989258,1.112793-.7558594,2.246582-.7558594,3.4433594,0,.9238281.230957,1.3227539.8398438,1.3227539.1889648,0,.4199219-.0209961.6928711-.1049805,1.1967773-.3359375,2.2675781-.902832,3.3173828-1.5537109,3.9892578-2.4775391,7.3066406-5.1860352,10.8549805-8.2724609l.671875-.5878906c.0629883-.0629883.1259766-.0629883.1889648-.0629883s.1259766.0209961.1679688.0629883c.0839844.0419922.0839844.1469727.0839844.1889648s-.0209961.1049805-.0629883.1469727c-.1259766.1679688-.2729492.3149414-.4199219.4619141-4.0732422,3.800293-8.0834961,6.949707-12.7866211,9.8891602-.7348633.4829102-1.5117188.8818359-2.3725586,1.0708008-.2099609.0419922-.3989258.0629883-.5878906.0629883-.9448242,0-1.574707-.5458984-1.8266602-1.574707Zm-.7348633-11.5268555c2.5615234-1.6796875,5.1020508-3.3803711,7.6005859-5.1650391,5.3540039-3.8842773,9.9311523-8.4824219,13.5634766-14.0253906,1.0078125-1.5117188,1.8476562-3.1074219,2.3515625-4.8710938.1259766-.4829102.230957-.9448242.230957-1.4487305,0-.8188477-.2099609-1.4277344-1.112793-1.6166992-.230957-.0419922-.440918-.0839844-.671875-.0839844-.5039062,0-.9868164.1259766-1.4907227.2519531-1.5537109.4199219-2.9604492,1.1757812-4.3251953,2.0576172-4.1782227,2.6875-7.5795898,6.1938477-10.4770508,10.2041016-3.2124023,4.472168-5.2490234,9.4902344-6.8447266,14.6972656-.0209961.0839844-.0419922.1679688-.0419922.2729492s.0209961.1889648.0839844.3149414c.4619141-.0839844.7768555-.3779297,1.1337891-.5878906Z"/>
      <path class="cls-1" d="m174.5927734,47.5561523c-.230957-.5878906-.2939453-1.1967773-.2939453-1.8056641.1049805-2.5825195.5039062-4.262207,1.2597656-6.9077148.7558594-2.7294922,1.6586914-5.3959961,2.7504883-7.9995117.1259766-.2519531.2939453-.4829102.2939453-.8188477l-.0419922-.2519531c-3.8632812.4619141-2.8344727.2939453-6.5927734.8818359-.1469727.0209961-.2939453.0629883-.440918.0629883-.3359375,0-.6088867-.1259766-.6928711-.4829102l-.0209961-.1679688c0-.1889648.0629883-.3569336.2519531-.4829102.3989258-.2729492.8398438-.5878906,1.2807617-.5878906.0839844,0,.1469727,0,.230957.0209961.3149414.0839844.6298828.1049805.9238281.1049805.7348633,0,1.4487305-.1679688,2.1835938-.2099609.902832-.0419922,1.8056641-.1679688,2.7084961-.2099609.6508789-.0419922,1.0288086-.3149414,1.34375-.9448242,1.34375-2.8344727,2.8974609-5.5429688,4.8710938-8.0205078.3989258-.4829102.7978516-.9658203,1.3017578-1.34375.1889648-.1469727.3989258-.2729492.6298828-.2729492.1469727,0,.2729492.0419922.4199219.1469727.230957.1679688.3359375.3779297.3359375.6298828,0,.1259766-.0419922.2729492-.1049805.3989258-.2729492.671875-.4199219,1.5117188-1.34375,1.5117188l-.230957-.0209961c-.1889648,0-.2729492.1679688-.3779297.3149414-1.6586914,2.246582-3.128418,4.5981445-4.262207,7.159668.0419922.2099609.1679688.2099609.3359375.2099609.1259766,0,.2519531-.0209961.3779297-.0419922,1.7006836-.1259766,3.4013672-.1679688,5.1230469-.1679688l3.5483398.0419922.3779297-.0209961c.2519531,0,.5039062.0629883.5039062.4199219,0,.3989258-.230957.440918-.5668945.440918-3.4853516,0-5.815918.1259766-9.5112305.3989258-.6298828.0419922-.9868164.230957-1.2597656.8398438-1.8686523,4.3251953-3.4013672,8.7553711-4.3041992,13.3955078-.1469727.7558594-.2519531,1.4907227-.2519531,2.2675781,0,1.4277344.3989258,2.0996094,1.2387695,2.0996094.3149414,0,.7138672-.1049805,1.1967773-.2939453.9448242-.3569336,1.8266602-.8608398,2.6665039-1.4277344,3.0444336-2.0786133,5.5429688-4.1152344,8.3564453-7.159668l.230957-.2519531c.1889648-.1889648.2099609-.2099609.2729492-.2519531s.1049805-.0419922.1679688-.0419922c.0839844,0,.1679688.0419922.2099609.1679688v.0419922c0,.1049805-.0839844.230957-.1679688.3359375-2.7924805,3.359375-6.3618164,6.2988281-9.8051758,8.5454102-.7138672.4619141-1.4487305.8818359-2.246582,1.1547852-.3149414.1049805-.7138672.1469727-.9868164.1469727-.8818359,0-1.5327148-.5249023-1.8896484-1.5537109Z"/>
      <path class="cls-1" d="m187.8857422,42.7900391c-.0419922-.1889648-.0839844-.3779297-.0839844-.5668945.1889648-1.6166992.7138672-2.8134766,1.7426758-3.9892578.1679688-.1889648.3569336-.4199219.6298828-.4199219.3989258.1049805.5458984.2099609.5458984.5458984l-.0629883.3779297c0,.3149414.2729492.4829102.5039062.5878906.3149414.1469727.6508789.2729492.9868164.3359375,1.4907227.2519531,2.9604492.3989258,4.4301758.3989258,1.8056641,0,3.5693359-.2099609,5.3540039-.6508789.5458984-.1469727,1.0498047-.3359375,1.574707-.5458984.1469727-.0629883.2939453-.1469727.5039062-.1469727.0629883,0,.1889648.1049805.1889648.230957v.0209961c-.0209961.1049805-.1679688.2519531-.4199219.3779297-.3779297.1889648-.671875.3149414-1.1967773.4829102-2.0786133.6298828-4.0942383.8608398-6.1938477.8608398-.9868164,0-1.9526367-.0629883-2.9394531-.1469727-.6298828-.0629883-1.2387695-.1259766-1.8476562-.2519531l-.2099609-.0209961c-.2729492,0-.3779297.0419922-.440918.3569336-.1259766.6088867-.3569336,1.1757812-.6928711,1.7216797-.2099609.3569336-.440918.6928711-.7978516.9448242-.230957.1469727-.440918.230957-.671875.230957-.3989258,0-.7348633-.2519531-.902832-.7348633Zm2.2885742-2.8764648v-.2519531c-.671875.6508789-.9868164,1.4277344-1.0498047,2.5615234.7558594-.7558594,1.0498047-1.4697266,1.0498047-2.3095703Z"/>
      <path class="cls-1" d="m225.9785156,49.0258789c-.0839844-.3569336-.1049805-.7138672-.1049805-1.0498047,0-.5249023.0629883-1.0288086.1679688-1.5537109.3359375-1.7636719,1.0498047-3.3803711,1.7006836-5.0390625.2939453-.7348633.7138672-1.4277344.7348633-2.3515625-.6088867.0419922-.9868164.3779297-1.34375.7138672-1.7216797,1.4907227-2.8974609,3.3803711-3.7792969,5.4589844l-.0629883.1889648c-.1049805.3359375-.1679688.7348633-.6298828.7348633-.5039062-.0209961-.671875-.440918-.7558594-.8608398-.0839844-.4619141-.1259766-.9448242-.1259766-1.4067383,0-.440918.0419922-.8608398.0629883-1.3017578.2099609-2.918457,1.0708008-5.7739258,1.9736328-8.6293945,2.4985352-7.8945312,6.949707-14.4663086,13.2485352-19.7993164,2.0576172-1.7426758,4.262207-3.2753906,6.7607422-4.3041992,1.0498047-.440918,2.1206055-.7348633,3.2333984-.7348633,1.9316406.1049805,2.9394531.7978516,2.9394531,2.6245117,0,.9868164-.2099609,1.6586914-.6088867,2.6245117-1.1337891,2.7714844-2.7924805,5.2070312-4.6401367,7.5375977-4.4511719,5.5849609-9.8051758,10.1621094-15.7890625,14.0253906-1.5957031,1.0078125-3.128418,2.0996094-4.7871094,2.9814453-.2939453.1469727-.5458984.2939453-.6298828.6508789-.2939453,1.1757812-.4619141,2.2675781-.5878906,3.6533203.4829102-.3149414.5668945-.671875.7558594-.9658203.7768555-1.3227539,1.7006836-2.5405273,2.918457-3.5063477.4829102-.3989258,1.0078125-.7558594,1.6166992-.9238281.1469727-.0419922.2939453-.0629883.440918-.0629883.7138672,0,1.1757812.5039062,1.1757812,1.3017578,0,.5878906-.1889648,1.0917969-.3779297,1.5957031-.5039062,1.3017578-1.0288086,2.6035156-1.5117188,3.9052734-.3989258,1.112793-.7558594,2.246582-.7558594,3.4433594,0,.9238281.230957,1.3227539.8398438,1.3227539.1889648,0,.4199219-.0209961.6928711-.1049805,1.1967773-.3359375,2.2675781-.902832,3.3173828-1.5537109,3.9892578-2.4775391,7.3066406-5.1860352,10.8549805-8.2724609l.671875-.5878906c.0629883-.0629883.1259766-.0629883.1889648-.0629883s.1259766.0209961.1679688.0629883c.0839844.0419922.0839844.1469727.0839844.1889648s-.0209961.1049805-.0629883.1469727c-.1259766.1679688-.2729492.3149414-.4199219.4619141-4.0732422,3.800293-8.0834961,6.949707-12.7866211,9.8891602-.7348633.4829102-1.5117188.8818359-2.3725586,1.0708008-.2099609.0419922-.3989258.0629883-.5878906.0629883-.9448242,0-1.574707-.5458984-1.8266602-1.574707Zm-.7348633-11.5268555c2.5615234-1.6796875,5.1020508-3.3803711,7.6005859-5.1650391,5.3540039-3.8842773,9.9311523-8.4824219,13.5634766-14.0253906,1.0078125-1.5117188,1.8476562-3.1074219,2.3515625-4.8710938.1259766-.4829102.230957-.9448242.230957-1.4487305,0-.8188477-.2099609-1.4277344-1.112793-1.6166992-.230957-.0419922-.440918-.0839844-.671875-.0839844-.5039062,0-.9868164.1259766-1.4907227.2519531-1.5537109.4199219-2.9604492,1.1757812-4.3251953,2.0576172-4.1782227,2.6875-7.5795898,6.1938477-10.4770508,10.2041016-3.2124023,4.472168-5.2490234,9.4902344-6.8447266,14.6972656-.0209961.0839844-.0419922.1679688-.0419922.2729492s.0209961.1889648.0839844.3149414c.4619141-.0839844.7768555-.3779297,1.1337891-.5878906Z"/>
      <path class="cls-1" d="m245.1938477,43c0-.7348633.2939453-1.8266602.4619141-2.456543-.0419922.0419922-.1049805.1259766-.2729492.2729492l-1.3227539,1.1547852c-.2519531.230957-.5249023.4619141-.8188477.6508789-.230957.1469727-.4619141.2519531-.6928711.2519531-.1679688,0-.3149414-.0419922-.4619141-.1469727-.2519531-.2099609-.3359375-.4619141-.3359375-.7348633l.0419922-.4199219c.0209961-.0209961.0209961-.0629883.0209961-.1049805.9448242-2.2255859,2.456543-3.9472656,4.6401367-4.9970703.2099609-.1049805.4829102-.1259766.7138672-.1259766.6298828,0,.9658203.3149414.9658203.8608398l-.0209961.2099609c-.0839844.6928711-.3989258,1.2597656-.7978516,1.8056641-.7768555,1.0288086-1.1967773,2.7924805-1.2597656,3.4433594-.0209961.1469727-.0209961.2939453-.0209961.440918,0,1.0288086.5668945,1.574707,1.6376953,1.574707l.3149414-.0209961c1.3017578-.1049805,3.4643555-1.0498047,4.6191406-1.6166992,2.3935547-1.1547852,4.5771484-2.4775391,6.7607422-3.9892578.3779297-.2729492.4829102-.3359375.6088867-.3359375l.1469727.0209961c.0839844.0629883.1049805.1259766.1049805.1679688,0,.1679688-.1469727.2939453-.3149414.4199219-2.4775391,1.8686523-4.472168,3.0864258-6.8867188,4.3461914-1.1547852.5878906-3.3173828,1.5327148-4.6191406,1.7216797-.230957.0209961-.4829102.0629883-.7138672.0629883-1.574707,0-2.4775391-.902832-2.4985352-2.456543Zm.7348633-3.6953125c.5878906-.3569336.7348633-.8398438.8398438-1.4697266-1.1757812.3569336-2.6245117,1.7636719-3.2124023,3.1494141.8608398-.6298828,1.5957031-1.2177734,2.3725586-1.6796875Z"/>
      <path class="cls-1" d="m259.1171875,44.1337891c-.1049805-.5458984-.1469727-1.0917969-.1469727-1.6586914,0-.8608398.1259766-1.7216797.3359375-2.5825195.1469727-.5039062.3149414-1.0078125.5039062-1.4907227.0839844-.2099609.230957-.3569336.4829102-.3569336.3359375,0,.5039062.230957.5458984.5039062l.0419922.3359375c0,.3359375-.1049805.671875-.1679688,1.0078125-.1679688.8188477-.3569336,1.6376953-.3569336,2.4985352,0,.3149414.0629883.8188477.1259766,1.1337891.2099609-.0839844.5249023-.671875.6928711-.9658203.7768555-1.4067383,1.3647461-2.918457,1.9736328-4.3881836.1679688-.3779297.3359375-.7558594.5668945-1.112793.1259766-.1889648.2939453-.3149414.4619141-.3149414.1469727,0,.2729492.0839844.3989258.230957,1.6796875,2.015625,4.1572266,2.6035156,6.3408203,2.6035156,1.0498047,0,1.9526367-.0209961,3.128418-.2519531.5878906-.1049805,1.1757812-.2939453,1.7636719-.5039062.1259766-.0419922.2519531-.1049805.3779297-.1049805.0629883,0,.1889648.0209961.230957.1679688v.0629883c0,.1679688-.230957.2939453-.3989258.3779297-.5039062.230957-.9868164.3989258-1.784668.5878906-.9448242.2099609-2.0576172.3569336-3.1494141.3569336-2.6455078,0-5.2280273-.5458984-6.949707-2.3935547-.2099609.2729492-.3149414.6088867-.4829102,1.0078125-.5458984,1.34375-1.0708008,2.7084961-1.6376953,4.0522461-.230957.5878906-.5039062,1.1547852-.8818359,1.6586914-.2519531.3359375-.5668945.6088867-.9868164.6088867-.7138672-.1049805-.8818359-.3989258-1.0288086-1.0708008Z"/>
      <path class="cls-1" d="m277.5126953,46.3803711c-1.8056641,0-3.0654297-1.1337891-3.0654297-2.7714844v-.2939453c0-.3149414.0419922-1.112793.2099609-1.7636719.6088867-2.3095703,1.9736328-4.2832031,3.9472656-5.1650391.3569336-.1469727.8398438-.2519531,1.2387695-.2519531.5458984,0,1.1757812.3149414,1.1757812.8188477,0,.2099609-.0209961.4829102-.2939453.8818359-.902832,1.3227539-2.015625,1.4907227-3.4013672,1.5537109-.5878906.0209961-.8818359.230957-1.1337891.7138672-.4199219.8398438-.6508789,1.784668-.6928711,3.0864258l-.0209961.3989258c0,1.4697266,1.2177734,1.9316406,2.5825195,1.9316406.5039062,0,1.0078125-.0839844,1.4907227-.230957,2.015625-.5878906,4.4301758-1.574707,6.8447266-2.8554688,2.0366211-1.0917969,4.0732422-2.3935547,5.7739258-3.5063477.1679688-.1049805.2519531-.2099609.5249023-.2099609.1049805.0419922.1259766.0839844.1469727.1889648,0,.0629883,0,.1469727-.1469727.2939453-.1469727.1259766-.3149414.2519531-.5039062.3779297-1.4487305,1.0288086-3.4013672,2.3305664-5.5009766,3.4433594-2.3725586,1.2807617-4.9130859,2.3095703-6.8237305,2.9394531-.671875.2099609-1.34375.3779297-2.0576172.4199219h-.2939453Zm2.5825195-9.1542969l.0419922-.1049805c0-.1259766-.1889648-.1469727-.230957-.1469727-1.0078125.0839844-2.0996094.8608398-2.7084961,1.7426758h.230957c1.5327148,0,2.246582-.7768555,2.6665039-1.4907227Z"/>
      <path class="cls-1" d="m312.8974609,43c0-.7348633.2939453-1.8266602.4619141-2.456543-.0419922.0419922-.1049805.1259766-.2729492.2729492l-1.3227539,1.1547852c-.2519531.230957-.5249023.4619141-.8188477.6508789-.230957.1469727-.4619141.2519531-.6928711.2519531-.1679688,0-.3149414-.0419922-.4619141-.1469727-.2519531-.2099609-.3359375-.4619141-.3359375-.7348633l.0419922-.4199219c.0209961-.0209961.0209961-.0629883.0209961-.1049805.9448242-2.2255859,2.456543-3.9472656,4.6401367-4.9970703.2099609-.1049805.4829102-.1259766.7138672-.1259766.6298828,0,.9658203.3149414.9658203.8608398l-.0209961.2099609c-.0839844.6928711-.3989258,1.2597656-.7978516,1.8056641-.7768555,1.0288086-1.1967773,2.7924805-1.2597656,3.4433594-.0209961.1469727-.0209961.2939453-.0209961.440918,0,1.0288086.5668945,1.574707,1.6376953,1.574707l.3149414-.0209961c1.3017578-.1049805,3.4643555-1.0498047,4.6191406-1.6166992,2.3935547-1.1547852,4.5771484-2.4775391,6.7607422-3.9892578.3779297-.2729492.4829102-.3359375.6088867-.3359375l.1469727.0209961c.0839844.0629883.1049805.1259766.1049805.1679688,0,.1679688-.1469727.2939453-.3149414.4199219-2.4775391,1.8686523-4.472168,3.0864258-6.8867188,4.3461914-1.1547852.5878906-3.3173828,1.5327148-4.6191406,1.7216797-.230957.0209961-.4829102.0629883-.7138672.0629883-1.574707,0-2.4775391-.902832-2.4985352-2.456543Zm.7348633-3.6953125c.5878906-.3569336.7348633-.8398438.8398438-1.4697266-1.1757812.3569336-2.6245117,1.7636719-3.2124023,3.1494141.8608398-.6298828,1.5957031-1.2177734,2.3725586-1.6796875Z"/>
    </g>
  </g>
</svg>