<?xml version="1.0" encoding="UTF-8"?>
<svg id="_レイヤー_2" data-name="レイヤー 2" xmlns="http://www.w3.org/2000/svg" viewBox="0 0 543.7695312 240.4645996">
  <defs>
    <style>
      .cls-1 {
        fill: #231815;
        stroke-width: 0px;
      }
    </style>
  </defs>
  <g id="_レイヤー_1-2" data-name="レイヤー 1">
    <g>
      <path class="cls-1" d="m0,33.515625h16.4160156v5.9279785c4.2177734-6.3840332,10.3735352-7.1818848,14.2495117-7.1818848,2.1660156,0,6.15625.2277832,9.5761719,2.2797852,2.621582,1.4819336,4.7875977,3.9899902,6.1557617,7.0678711,1.2539062-2.0517578,3.1918945-4.4458008,6.4980469-6.4978027,3.5336914-2.1660156,6.8398438-2.8498535,10.8295898-2.8498535,6.15625,0,11.171875,1.8239746,14.25,4.7878418,4.9018555,4.6738281,5.2436523,11.513916,5.2436523,15.1618652v32.1474609h-16.4155273v-25.7636719c0-2.6218262,0-7.1818848-2.1660156-9.9177246-1.3681641-1.7102051-3.5336914-2.736084-5.9277344-2.736084-2.7363281,0-5.0161133,1.2539062-6.3842773,3.0778809-2.1660156,2.736084-2.5078125,6.7260742-2.5078125,10.0319824v25.3076172h-16.4155273v-26.4477539c0-3.4199219-.1142578-7.409668-2.6220703-9.9177246-1.7099609-1.7099609-3.762207-2.052002-5.472168-2.052002-2.1660156,0-4.1040039.5700684-5.699707,2.052002-3.078125,2.9638672-3.1918945,8.6638184-3.1918945,10.3737793v25.9916992H0v-50.8432617Z"/>
      <path class="cls-1" d="m112.5166016,33.515625v28.043457c0,2.2800293.2280273,5.8139648,2.8496094,8.2080078,1.1401367,1.0258789,3.1923828,2.394043,6.840332,2.394043,3.0776367,0,5.4716797-1.026123,6.9536133-2.394043,2.394043-2.2800293,2.7358398-5.6999512,2.7358398-8.2080078v-28.043457h16.4160156v29.6396484c0,5.8137207-.5698242,11.2856445-5.699707,16.3017578-5.8139648,5.6999512-14.3642578,6.6118164-20.4057617,6.6118164-6.2700195,0-14.7060547-.9118652-20.5200195-6.6118164-4.6738281-4.5600586-5.5859375-9.6899414-5.5859375-15.2758789v-30.6655273h16.4160156Z"/>
      <path class="cls-1" d="m192.2011719,46.5114746c-2.5078125-1.4819336-5.8139648-2.8500977-9.0058594-2.8500977-1.7099609,0-3.6479492.4560547-4.6738281,1.4821777-.5698242.5698242-1.0258789,1.4819336-1.0258789,2.2797852,0,1.1401367.7978516,1.8239746,1.5957031,2.2800293,1.1401367.684082,2.8500977,1.0258789,4.9018555,1.7099609l4.3320312,1.3679199c2.8500977.9121094,5.8139648,2.052002,8.4360352,4.4460449,2.9638672,2.7358398,3.9897461,5.8139648,3.9897461,9.6899414,0,6.7258301-2.9638672,11.0578613-5.2436523,13.3376465-5.0161133,5.0161133-11.171875,5.8139648-16.5297852,5.8139648-6.8398438,0-14.25-1.4819336-20.8618164-7.2958984l6.9541016-11.0578613c1.5957031,1.3679199,3.8759766,2.9641113,5.5859375,3.7619629,2.2797852,1.1398926,4.6738281,1.5959473,6.8398438,1.5959473,1.0258789,0,3.6479492,0,5.1298828-1.1398926,1.0258789-.7980957,1.7099609-2.052002,1.7099609-3.3059082,0-.9121094-.3422852-2.052002-1.8242188-2.9641113-1.1396484-.6838379-2.621582-1.1398926-5.015625-1.8239746l-4.1040039-1.2539062c-2.9638672-.9121094-6.0419922-2.5080566-8.2080078-4.6740723-2.394043-2.5078125-3.6479492-5.3579102-3.6479492-9.2336426,0-4.9020996,1.9379883-9.0061035,4.9018555-11.7419434,4.5600586-4.2180176,10.7158203-5.1298828,15.3901367-5.1298828,7.5239258,0,12.7675781,1.9379883,16.871582,4.3317871l-6.4980469,10.3740234Z"/>
      <path class="cls-1" d="m249.5424805,33.515625h16.4155273v50.8432617h-16.4155273v-6.1560059c-4.4462891,6.8400879-10.8300781,7.8659668-15.0478516,7.8659668-7.2958984,0-13.4521484-1.8239746-19.0380859-7.7519531-5.3579102-5.6999512-7.409668-12.3117676-7.409668-19.0375977,0-8.5500488,3.1918945-15.8459473,7.8657227-20.5197754,4.4462891-4.4460449,10.6020508-6.9538574,17.6699219-6.9538574,4.3320312,0,11.2856445,1.0258789,15.9599609,7.4099121v-5.6999512Zm-20.8618164,16.0737305c-1.7099609,1.7099609-3.762207,4.6738281-3.762207,9.2338867s1.9379883,7.5239258,3.4199219,9.119873c2.2802734,2.394043,5.8139648,3.9899902,9.6899414,3.9899902,3.3061523,0,6.3837891-1.3679199,8.5498047-3.5339355,2.1660156-2.052002,3.9902344-5.2438965,3.9902344-9.5759277,0-3.6479492-1.3681641-7.0678711-3.762207-9.3479004-2.5078125-2.394043-6.1557617-3.5339355-9.1196289-3.5339355-3.5341797,0-6.8398438,1.4819336-9.0058594,3.6479492Z"/>
      <path class="cls-1" d="m323.0698242,46.739502v37.6193848h-16.4155273v-37.6193848h-5.9277344v-13.223877h5.9277344v-10.0319824c0-5.6999512.5698242-12.1977539,5.699707-17.6696777,3.3061523-3.5339355,7.9799805-5.8139648,14.25-5.8139648,3.6479492,0,6.6118164.684082,9.3476562,1.7099609v14.3637695c-1.8237305-1.1398926-4.2177734-1.9379883-6.2695312-1.9379883-2.5083008,0-4.1040039,1.1401367-4.7880859,2.052002-1.8242188,2.394043-1.8242188,6.3840332-1.8242188,8.7780762v8.5498047h12.9960938v13.223877h-12.9960938Z"/>
      <path class="cls-1" d="m356.5849609,33.515625v28.043457c0,2.2800293.2280273,5.8139648,2.8496094,8.2080078,1.1401367,1.0258789,3.1923828,2.394043,6.840332,2.394043,3.0776367,0,5.4716797-1.026123,6.9536133-2.394043,2.394043-2.2800293,2.7358398-5.6999512,2.7358398-8.2080078v-28.043457h16.4160156v29.6396484c0,5.8137207-.5698242,11.2856445-5.699707,16.3017578-5.8139648,5.6999512-14.3642578,6.6118164-20.4057617,6.6118164-6.2700195,0-14.7060547-.9118652-20.5200195-6.6118164-4.6738281-4.5600586-5.5859375-9.6899414-5.5859375-15.2758789v-30.6655273h16.4160156Z"/>
      <path class="cls-1" d="m414.4960938,2.2800293c5.3579102,0,9.5756836,4.2180176,9.5756836,9.5759277s-4.2177734,9.5756836-9.5756836,9.5756836-9.5761719-4.2177734-9.5761719-9.5756836,4.2182617-9.5759277,9.5761719-9.5759277Zm8.2075195,31.2355957v76.9489746h-16.4155273V33.515625h16.4155273Z"/>
      <path class="cls-1" d="m445.9584961,2.2800293c5.3579102,0,9.5756836,4.2180176,9.5756836,9.5759277s-4.2177734,9.5756836-9.5756836,9.5756836-9.5761719-4.2177734-9.5761719-9.5756836,4.2182617-9.5759277,9.5761719-9.5759277Zm8.2075195,31.2355957v50.8432617h-16.4155273v-50.8432617h16.4155273Z"/>
      <path class="cls-1" d="m.4560547,131.2541504h16.4160156v38.3034668c2.0517578-2.5080566,4.2177734-4.2180176,6.1557617-5.2441406,3.4199219-1.8239746,6.2700195-2.1657715,9.9179688-2.1657715,3.9897461,0,9.9174805.5698242,14.3637695,5.1298828,4.6738281,4.6738281,5.015625,10.9438477,5.015625,14.8198242v32.2614746h-16.4155273v-26.1057129c0-3.5339355-.1142578-7.6379395-2.7358398-10.145752-1.4819336-1.4819336-3.9902344-2.2800293-6.3842773-2.2800293-3.5336914,0-5.5859375,1.5959473-6.4975586,2.5080566-3.3061523,3.1918945-3.4199219,8.09375-3.4199219,10.6018066v25.4216309H.4560547v-83.1047363Z"/>
      <path class="cls-1" d="m104.081543,163.515625h16.4155273v50.8432617h-16.4155273v-6.1560059c-4.4462891,6.8400879-10.8300781,7.8659668-15.0478516,7.8659668-7.2958984,0-13.4521484-1.8239746-19.0380859-7.7519531-5.3579102-5.6999512-7.409668-12.3117676-7.409668-19.0375977,0-8.5500488,3.1918945-15.8459473,7.8657227-20.5197754,4.4462891-4.4460449,10.6020508-6.9538574,17.6699219-6.9538574,4.3320312,0,11.2856445,1.0258789,15.9599609,7.4099121v-5.6999512Zm-20.8618164,16.0737305c-1.7099609,1.7099609-3.762207,4.6738281-3.762207,9.2338867s1.9379883,7.5239258,3.4199219,9.119873c2.2802734,2.394043,5.8139648,3.9899902,9.6899414,3.9899902,3.3061523,0,6.3837891-1.3679199,8.5498047-3.5339355,2.1660156-2.052002,3.9902344-5.2438965,3.9902344-9.5759277,0-3.6479492-1.3681641-7.0678711-3.762207-9.3479004-2.5078125-2.394043-6.1557617-3.5339355-9.1196289-3.5339355-3.5341797,0-6.8398438,1.4819336-9.0058594,3.6479492Z"/>
      <path class="cls-1" d="m149.6806641,240.4645996h-16.4160156v-76.9489746h16.4160156v6.0419922c5.3579102-6.9541016,11.9697266-7.7519531,15.8457031-7.7519531,9.1196289,0,14.8198242,3.9899902,18.0117188,7.1818848,4.5600586,4.5598145,7.6376953,11.513916,7.6376953,19.8356934,0,8.777832-3.0776367,15.3898926-8.09375,20.4057617s-10.487793,6.8398438-17.2138672,6.8398438c-10.1455078,0-14.4775391-5.1298828-16.1875-7.5239258v31.9196777Zm2.7358398-60.7612305c-2.6220703,2.6220703-3.8759766,6.2700195-3.8759766,9.3479004,0,3.1918945,1.2539062,6.4978027,3.6479492,9.0058594,2.394043,2.394043,5.8139648,3.8759766,9.3476562,3.8759766,3.078125,0,6.3842773-1.2539062,8.7783203-3.5339355,2.621582-2.5080566,3.9897461-6.3840332,3.9897461-9.6899414,0-3.7619629-1.5961914-7.0678711-3.8759766-9.2338867-2.394043-2.2800293-5.5859375-3.5339355-8.8920898-3.5339355-4.5595703,0-7.5234375,2.1660156-9.1196289,3.7619629Z"/>
      <path class="cls-1" d="m217.8515625,240.4645996h-16.4160156v-76.9489746h16.4160156v6.0419922c5.3579102-6.9541016,11.9697266-7.7519531,15.8457031-7.7519531,9.1196289,0,14.8198242,3.9899902,18.0117188,7.1818848,4.5600586,4.5598145,7.6376953,11.513916,7.6376953,19.8356934,0,8.777832-3.0776367,15.3898926-8.09375,20.4057617s-10.487793,6.8398438-17.2138672,6.8398438c-10.1455078,0-14.4775391-5.1298828-16.1875-7.5239258v31.9196777Zm2.7358398-60.7612305c-2.6220703,2.6220703-3.8759766,6.2700195-3.8759766,9.3479004,0,3.1918945,1.2539062,6.4978027,3.6479492,9.0058594,2.394043,2.394043,5.8139648,3.8759766,9.3476562,3.8759766,3.078125,0,6.3842773-1.2539062,8.7783203-3.5339355,2.621582-2.5080566,3.9897461-6.3840332,3.9897461-9.6899414,0-3.7619629-1.5961914-7.0678711-3.8759766-9.2338867-2.394043-2.2800293-5.5859375-3.5339355-8.8920898-3.5339355-4.5595703,0-7.5234375,2.1660156-9.1196289,3.7619629Z"/>
      <path class="cls-1" d="m287.7324219,207.861084l-24.2817383-44.345459h18.9238281l14.3637695,27.5876465,14.0214844-27.5876465h18.4677734l-40.925293,76.9489746h-18.4677734l17.8979492-32.6035156Z"/>
      <path class="cls-1" d="m379.7280273,131.2541504v83.1047363h-16.4160156v-83.1047363h16.4160156Z"/>
      <path class="cls-1" d="m404.5791016,132.2800293c5.3579102,0,9.5756836,4.2180176,9.5756836,9.5759277s-4.2177734,9.5756836-9.5756836,9.5756836-9.5761719-4.2177734-9.5761719-9.5756836,4.2182617-9.5759277,9.5761719-9.5759277Zm8.2075195,31.2355957v50.8432617h-16.4155273v-50.8432617h16.4155273Z"/>
      <path class="cls-1" d="m444.4770508,176.739502v37.6193848h-16.4155273v-37.6193848h-5.9277344v-13.223877h5.9277344v-10.0319824c0-5.6999512.5698242-12.1977539,5.699707-17.6696777,3.3061523-3.5339355,7.9799805-5.8139648,14.25-5.8139648,3.6479492,0,6.6118164.684082,9.3476562,1.7099609v14.3637695c-1.8237305-1.1398926-4.2177734-1.9379883-6.2695312-1.9379883-2.5083008,0-4.1040039,1.1401367-4.7880859,2.052002-1.8242188,2.394043-1.8242188,6.3840332-1.8242188,8.7780762v8.5498047h12.9960938v13.223877h-12.9960938Z"/>
      <path class="cls-1" d="m513.6733398,191.7871094h-37.9614258c0,2.736084,1.0263672,6.3840332,3.078125,8.6640625,2.5078125,2.7358398,5.9277344,3.1918945,8.4360352,3.1918945,2.394043,0,4.9018555-.4560547,6.6118164-1.4819336.2280273-.1140137,2.1660156-1.3681641,3.5336914-4.2180176l15.5039062,1.5959473c-2.2797852,7.1818848-6.8398438,10.9438477-9.8037109,12.7678223-4.9018555,2.9641113-10.3740234,3.7619629-16.0737305,3.7619629-7.6381836,0-14.3637695-1.3679199-20.2919922-7.2958984-4.4458008-4.4458008-7.6376953-11.171875-7.6376953-19.607666,0-7.2958984,2.6220703-14.8198242,7.7519531-20.0637207,6.1557617-6.1560059,13.7939453-7.2958984,19.4936523-7.2958984s13.9077148,1.0258789,20.1777344,7.6379395c6.0419922,6.3837891,7.1816406,14.3637695,7.1816406,20.6335449v1.7099609Zm-15.1616211-9.8037109c-.1137695-.4560547-.9121094-3.6479492-3.3056641-5.9279785-1.8242188-1.7099609-4.4462891-2.8498535-7.7519531-2.8498535-4.2182617,0-6.7260742,1.7099609-8.3222656,3.3059082-1.2539062,1.3679199-2.3935547,3.1918945-2.8496094,5.4719238h22.2294922Z"/>
      <path class="cls-1" d="m533.3955078,195.4350586c5.8139648,0,10.3740234,4.5600586,10.3740234,10.3740234s-4.5600586,10.3737793-10.3740234,10.3737793-10.3740234-4.5598145-10.3740234-10.3737793,4.5600586-10.3740234,10.3740234-10.3740234Zm-8.4360352-5.5859375v-51.5270996h16.8720703v51.5270996h-16.8720703Z"/>
    </g>
  </g>
</svg>